G04 #@! TF.FileFunction,Soldermask,Bot*
%FSLAX46Y46*%
G04 Gerber Fmt 4.6, Leading zero omitted, Abs format (unit mm)*
G04 Created by KiCad (PCBNEW 4.0.7) date 10/18/17 23:54:45*
%MOMM*%
%LPD*%
G01*
G04 APERTURE LIST*
%ADD10C,0.150000*%
%ADD11C,1.500000*%
%ADD12C,1.524000*%
%ADD13C,3.810000*%
%ADD14R,1.520000X1.520000*%
%ADD15C,1.520000*%
%ADD16C,0.812800*%
G04 APERTURE END LIST*
D10*
D11*
X164980400Y-62575200D03*
D12*
X167520400Y-118455200D03*
X164980400Y-118455200D03*
X167520400Y-115915200D03*
X164980400Y-115915200D03*
X167520400Y-113375200D03*
X164980400Y-113375200D03*
X167520400Y-98135200D03*
X167520400Y-110835200D03*
X164980400Y-110835200D03*
X164980400Y-72735200D03*
X164980400Y-70195200D03*
X164980400Y-67655200D03*
X164980400Y-65115200D03*
X164980400Y-108295200D03*
X164980400Y-105755200D03*
X167520400Y-108295200D03*
X167520400Y-105755200D03*
X167520400Y-103215200D03*
X167520400Y-100675200D03*
X167520400Y-95595200D03*
X164980400Y-103215200D03*
X167520400Y-93055200D03*
X167520400Y-90515200D03*
X164980400Y-100675200D03*
X167520400Y-87975200D03*
X164980400Y-98135200D03*
X167520400Y-85435200D03*
X164980400Y-95595200D03*
X167520400Y-82895200D03*
X164980400Y-93055200D03*
X167520400Y-80355200D03*
X164980400Y-90515200D03*
X167520400Y-77815200D03*
X164980400Y-87975200D03*
X167520400Y-75275200D03*
X164980400Y-85435200D03*
X167520400Y-72735200D03*
X164980400Y-82895200D03*
X167520400Y-70195200D03*
X164980400Y-80355200D03*
X167520400Y-67655200D03*
X164980400Y-77815200D03*
X167520400Y-65115200D03*
X164980400Y-75275200D03*
X167520400Y-62575200D03*
X119260400Y-62575200D03*
X116720400Y-75275200D03*
X119260400Y-65115200D03*
X116720400Y-77815200D03*
X119260400Y-67655200D03*
X116720400Y-80355200D03*
X119260400Y-70195200D03*
X116720400Y-82895200D03*
X119260400Y-72735200D03*
X116720400Y-85435200D03*
X119260400Y-75275200D03*
X116720400Y-87975200D03*
X119260400Y-77815200D03*
X116720400Y-90515200D03*
X119260400Y-80355200D03*
X116720400Y-93055200D03*
X119260400Y-82895200D03*
X116720400Y-95595200D03*
X119260400Y-85435200D03*
X116720400Y-98135200D03*
X119260400Y-87975200D03*
X116720400Y-100675200D03*
X119260400Y-90515200D03*
X119260400Y-93055200D03*
X116720400Y-103215200D03*
X119260400Y-95595200D03*
X119260400Y-100675200D03*
X119260400Y-103215200D03*
X119260400Y-105755200D03*
X119260400Y-108295200D03*
X116720400Y-105755200D03*
X116720400Y-108295200D03*
X116720400Y-65115200D03*
X116720400Y-67655200D03*
X116720400Y-70195200D03*
X116720400Y-72735200D03*
X116720400Y-110835200D03*
X119260400Y-110835200D03*
X119260400Y-98135200D03*
X116720400Y-113375200D03*
X119260400Y-113375200D03*
X116720400Y-115915200D03*
X119260400Y-115915200D03*
X116720400Y-118455200D03*
X119260400Y-118455200D03*
D11*
X116720400Y-62575200D03*
D13*
X118676500Y-127444500D03*
X165666500Y-127444500D03*
D14*
X158686500Y-124904500D03*
D15*
X155896500Y-124904500D03*
X153226500Y-124904500D03*
X150426500Y-124904500D03*
X147636500Y-124904500D03*
X144846500Y-124904500D03*
X142176500Y-124904500D03*
X139386500Y-124904500D03*
X136586500Y-124904500D03*
X133796500Y-124904500D03*
X131126500Y-124904500D03*
X128336500Y-124904500D03*
X125536500Y-124904500D03*
X157116500Y-127444500D03*
X154576500Y-127444500D03*
X151776500Y-127444500D03*
X149036500Y-127444500D03*
X146286500Y-127444500D03*
X143496500Y-127444500D03*
X140756500Y-127444500D03*
X138006500Y-127444500D03*
X135166500Y-127444500D03*
X132476500Y-127444500D03*
X129726500Y-127444500D03*
X126936500Y-127444500D03*
D16*
X123952000Y-81661000D03*
X156273500Y-105727500D03*
X145732500Y-107061000D03*
X133413500Y-107251500D03*
X133858000Y-112204500D03*
X132588000Y-112014000D03*
X141033500Y-111569500D03*
X139827000Y-111760000D03*
X146113500Y-111252000D03*
X144843500Y-111760000D03*
X153352500Y-110490000D03*
X152082500Y-110998000D03*
X121602500Y-112141000D03*
X122618500Y-109537500D03*
X122618500Y-90614500D03*
M02*
