G04 #@! TF.FileFunction,Copper,L2,Bot,Signal*
%FSLAX46Y46*%
G04 Gerber Fmt 4.6, Leading zero omitted, Abs format (unit mm)*
G04 Created by KiCad (PCBNEW 4.0.7) date 10/18/17 23:54:45*
%MOMM*%
%LPD*%
G01*
G04 APERTURE LIST*
%ADD10C,0.150000*%
%ADD11C,1.500000*%
%ADD12C,1.524000*%
%ADD13C,3.810000*%
%ADD14R,1.520000X1.520000*%
%ADD15C,1.520000*%
%ADD16C,0.812800*%
%ADD17C,0.350000*%
%ADD18C,0.254000*%
G04 APERTURE END LIST*
D10*
D11*
X164980400Y-62575200D03*
D12*
X167520400Y-118455200D03*
X164980400Y-118455200D03*
X167520400Y-115915200D03*
X164980400Y-115915200D03*
X167520400Y-113375200D03*
X164980400Y-113375200D03*
X167520400Y-98135200D03*
X167520400Y-110835200D03*
X164980400Y-110835200D03*
X164980400Y-72735200D03*
X164980400Y-70195200D03*
X164980400Y-67655200D03*
X164980400Y-65115200D03*
X164980400Y-108295200D03*
X164980400Y-105755200D03*
X167520400Y-108295200D03*
X167520400Y-105755200D03*
X167520400Y-103215200D03*
X167520400Y-100675200D03*
X167520400Y-95595200D03*
X164980400Y-103215200D03*
X167520400Y-93055200D03*
X167520400Y-90515200D03*
X164980400Y-100675200D03*
X167520400Y-87975200D03*
X164980400Y-98135200D03*
X167520400Y-85435200D03*
X164980400Y-95595200D03*
X167520400Y-82895200D03*
X164980400Y-93055200D03*
X167520400Y-80355200D03*
X164980400Y-90515200D03*
X167520400Y-77815200D03*
X164980400Y-87975200D03*
X167520400Y-75275200D03*
X164980400Y-85435200D03*
X167520400Y-72735200D03*
X164980400Y-82895200D03*
X167520400Y-70195200D03*
X164980400Y-80355200D03*
X167520400Y-67655200D03*
X164980400Y-77815200D03*
X167520400Y-65115200D03*
X164980400Y-75275200D03*
X167520400Y-62575200D03*
X119260400Y-62575200D03*
X116720400Y-75275200D03*
X119260400Y-65115200D03*
X116720400Y-77815200D03*
X119260400Y-67655200D03*
X116720400Y-80355200D03*
X119260400Y-70195200D03*
X116720400Y-82895200D03*
X119260400Y-72735200D03*
X116720400Y-85435200D03*
X119260400Y-75275200D03*
X116720400Y-87975200D03*
X119260400Y-77815200D03*
X116720400Y-90515200D03*
X119260400Y-80355200D03*
X116720400Y-93055200D03*
X119260400Y-82895200D03*
X116720400Y-95595200D03*
X119260400Y-85435200D03*
X116720400Y-98135200D03*
X119260400Y-87975200D03*
X116720400Y-100675200D03*
X119260400Y-90515200D03*
X119260400Y-93055200D03*
X116720400Y-103215200D03*
X119260400Y-95595200D03*
X119260400Y-100675200D03*
X119260400Y-103215200D03*
X119260400Y-105755200D03*
X119260400Y-108295200D03*
X116720400Y-105755200D03*
X116720400Y-108295200D03*
X116720400Y-65115200D03*
X116720400Y-67655200D03*
X116720400Y-70195200D03*
X116720400Y-72735200D03*
X116720400Y-110835200D03*
X119260400Y-110835200D03*
X119260400Y-98135200D03*
X116720400Y-113375200D03*
X119260400Y-113375200D03*
X116720400Y-115915200D03*
X119260400Y-115915200D03*
X116720400Y-118455200D03*
X119260400Y-118455200D03*
D11*
X116720400Y-62575200D03*
D13*
X118676500Y-127444500D03*
X165666500Y-127444500D03*
D14*
X158686500Y-124904500D03*
D15*
X155896500Y-124904500D03*
X153226500Y-124904500D03*
X150426500Y-124904500D03*
X147636500Y-124904500D03*
X144846500Y-124904500D03*
X142176500Y-124904500D03*
X139386500Y-124904500D03*
X136586500Y-124904500D03*
X133796500Y-124904500D03*
X131126500Y-124904500D03*
X128336500Y-124904500D03*
X125536500Y-124904500D03*
X157116500Y-127444500D03*
X154576500Y-127444500D03*
X151776500Y-127444500D03*
X149036500Y-127444500D03*
X146286500Y-127444500D03*
X143496500Y-127444500D03*
X140756500Y-127444500D03*
X138006500Y-127444500D03*
X135166500Y-127444500D03*
X132476500Y-127444500D03*
X129726500Y-127444500D03*
X126936500Y-127444500D03*
D16*
X123952000Y-81661000D03*
X156273500Y-105727500D03*
X145732500Y-107061000D03*
X133413500Y-107251500D03*
X133858000Y-112204500D03*
X132588000Y-112014000D03*
X141033500Y-111569500D03*
X139827000Y-111760000D03*
X146113500Y-111252000D03*
X144843500Y-111760000D03*
X153352500Y-110490000D03*
X152082500Y-110998000D03*
X121602500Y-112141000D03*
X122618500Y-109537500D03*
X122618500Y-90614500D03*
D17*
X123952000Y-107759500D02*
X123952000Y-81661000D01*
X123952000Y-81661000D02*
X123952000Y-65341500D01*
X123952000Y-65341500D02*
X121185700Y-62575200D01*
X121185700Y-62575200D02*
X119260400Y-62575200D01*
X118676500Y-127444500D02*
X121216500Y-124904500D01*
X121216500Y-124904500D02*
X125536500Y-124904500D01*
X165666500Y-127444500D02*
X164015500Y-129095500D01*
X164015500Y-129095500D02*
X152925500Y-129095500D01*
X122386100Y-120310900D02*
X125536500Y-123461300D01*
X125536500Y-123461300D02*
X125536500Y-124904500D01*
X125536500Y-124904500D02*
X125536500Y-128076500D01*
X152925500Y-129095500D02*
X152948500Y-129072500D01*
X152948500Y-129072500D02*
X154576500Y-127444500D01*
X126555500Y-129095500D02*
X152925500Y-129095500D01*
X125536500Y-128076500D02*
X126555500Y-129095500D01*
X119260400Y-118455200D02*
X120530400Y-118455200D01*
X120530400Y-118455200D02*
X122386100Y-120310900D01*
X116720400Y-115915200D02*
X119260400Y-115915200D01*
X119260400Y-115915200D02*
X119260400Y-118455200D01*
X119260400Y-118455200D02*
X116720400Y-118455200D01*
X116720400Y-118455200D02*
X116720400Y-115915200D01*
X134016750Y-105314750D02*
X126396750Y-105314750D01*
X123952000Y-118745000D02*
X122386100Y-120310900D01*
X123952000Y-107759500D02*
X123952000Y-118745000D01*
X126396750Y-105314750D02*
X123952000Y-107759500D01*
X116720400Y-62575200D02*
X119260400Y-62575200D01*
X145859500Y-105283000D02*
X155829000Y-105283000D01*
X155829000Y-105283000D02*
X156273500Y-105727500D01*
X145859500Y-106934000D02*
X145859500Y-105283000D01*
X145732500Y-107061000D02*
X145859500Y-106934000D01*
X133413500Y-107251500D02*
X133413500Y-105918000D01*
X133413500Y-105918000D02*
X134016750Y-105314750D01*
X134016750Y-105314750D02*
X134048500Y-105283000D01*
X134048500Y-105283000D02*
X145859500Y-105283000D01*
D18*
X155896500Y-124904500D02*
X155896500Y-126124500D01*
X155896500Y-126124500D02*
X154576500Y-127444500D01*
X167520400Y-118455200D02*
X166286200Y-117221000D01*
X166286200Y-117221000D02*
X166243000Y-117221000D01*
X135509000Y-113855500D02*
X133858000Y-112204500D01*
X160655000Y-113855500D02*
X135509000Y-113855500D01*
X164020500Y-117221000D02*
X160655000Y-113855500D01*
X166243000Y-117221000D02*
X164020500Y-117221000D01*
X164980400Y-118455200D02*
X164492700Y-118455200D01*
X164492700Y-118455200D02*
X164147500Y-118110000D01*
X135001000Y-114427000D02*
X132588000Y-112014000D01*
X160464500Y-114427000D02*
X135001000Y-114427000D01*
X164556200Y-118518700D02*
X164147500Y-118110000D01*
X164147500Y-118110000D02*
X160464500Y-114427000D01*
X167520400Y-115915200D02*
X166286200Y-114681000D01*
X142240000Y-112776000D02*
X141033500Y-111569500D01*
X161036000Y-112776000D02*
X142240000Y-112776000D01*
X162941000Y-114681000D02*
X161036000Y-112776000D01*
X166286200Y-114681000D02*
X162941000Y-114681000D01*
X164980400Y-115915200D02*
X164916900Y-115978700D01*
X164916900Y-115978700D02*
X163476700Y-115978700D01*
X163476700Y-115978700D02*
X160845500Y-113347500D01*
X160845500Y-113347500D02*
X141414500Y-113347500D01*
X141414500Y-113347500D02*
X139827000Y-111760000D01*
X167520400Y-113375200D02*
X166349700Y-112204500D01*
X166349700Y-112204500D02*
X166306500Y-112204500D01*
X146621500Y-111760000D02*
X146113500Y-111252000D01*
X161290000Y-111760000D02*
X146621500Y-111760000D01*
X161734500Y-112204500D02*
X161290000Y-111760000D01*
X166306500Y-112204500D02*
X161734500Y-112204500D01*
X164980400Y-113375200D02*
X164916900Y-113438700D01*
X164916900Y-113438700D02*
X162333700Y-113438700D01*
X145351500Y-112268000D02*
X144843500Y-111760000D01*
X161163000Y-112268000D02*
X145351500Y-112268000D01*
X162333700Y-113438700D02*
X161163000Y-112268000D01*
X167520400Y-110835200D02*
X167520400Y-110116400D01*
X167520400Y-110116400D02*
X167068500Y-109664500D01*
X167068500Y-109664500D02*
X164592000Y-109664500D01*
X164592000Y-109664500D02*
X163639500Y-110617000D01*
X163639500Y-110617000D02*
X153479500Y-110617000D01*
X153479500Y-110617000D02*
X153352500Y-110490000D01*
X164980400Y-110835200D02*
X164563600Y-111252000D01*
X164563600Y-111252000D02*
X164338000Y-111252000D01*
X164338000Y-111252000D02*
X152336500Y-111252000D01*
X152336500Y-111252000D02*
X152082500Y-110998000D01*
X120804700Y-72735200D02*
X119260400Y-72735200D01*
X121602500Y-73533000D02*
X120804700Y-72735200D01*
X121602500Y-112141000D02*
X121602500Y-73533000D01*
D17*
X122618500Y-90678000D02*
X122618500Y-109537500D01*
X122555000Y-90678000D02*
X122618500Y-90678000D01*
X121249200Y-65115200D02*
X122618500Y-66484500D01*
X122618500Y-66484500D02*
X122618500Y-90678000D01*
X119260400Y-65115200D02*
X121249200Y-65115200D01*
X122618500Y-90614500D02*
X122555000Y-90678000D01*
X116720400Y-65115200D02*
X119260400Y-65115200D01*
D18*
G36*
X130305136Y-63972753D02*
X130350841Y-64038320D01*
X130395237Y-64104763D01*
X130398831Y-64107164D01*
X130401303Y-64110711D01*
X130468622Y-64153797D01*
X130535063Y-64198192D01*
X130539302Y-64199035D01*
X130542944Y-64201366D01*
X130621644Y-64215414D01*
X130700000Y-64231000D01*
X153500000Y-64231000D01*
X153578380Y-64215409D01*
X153657056Y-64201366D01*
X153660698Y-64199035D01*
X153664937Y-64198192D01*
X153731378Y-64153797D01*
X153798697Y-64110711D01*
X153801169Y-64107164D01*
X153804763Y-64104763D01*
X153849159Y-64038320D01*
X153894864Y-63972753D01*
X154408300Y-62799183D01*
X163849204Y-62799183D01*
X164021025Y-63215023D01*
X164338903Y-63533456D01*
X164754443Y-63706004D01*
X165204383Y-63706396D01*
X165620223Y-63534575D01*
X165938656Y-63216697D01*
X166111037Y-62801559D01*
X166377202Y-62801559D01*
X166550846Y-63221812D01*
X166872097Y-63543623D01*
X167292046Y-63718001D01*
X167746759Y-63718398D01*
X168167012Y-63544754D01*
X168488823Y-63223503D01*
X168663201Y-62803554D01*
X168663598Y-62348841D01*
X168489954Y-61928588D01*
X168168703Y-61606777D01*
X167748754Y-61432399D01*
X167294041Y-61432002D01*
X166873788Y-61605646D01*
X166551977Y-61926897D01*
X166377599Y-62346846D01*
X166377202Y-62801559D01*
X166111037Y-62801559D01*
X166111204Y-62801157D01*
X166111596Y-62351217D01*
X165939775Y-61935377D01*
X165621897Y-61616944D01*
X165206357Y-61444396D01*
X164756417Y-61444004D01*
X164340577Y-61615825D01*
X164022144Y-61933703D01*
X163849596Y-62349243D01*
X163849204Y-62799183D01*
X154408300Y-62799183D01*
X155881881Y-59431000D01*
X168969000Y-59431000D01*
X168969000Y-134569000D01*
X115231000Y-134569000D01*
X115231000Y-129250940D01*
X117049665Y-129250940D01*
X117258853Y-129611789D01*
X118196150Y-129989324D01*
X119206577Y-129979433D01*
X120094147Y-129611789D01*
X120303335Y-129250940D01*
X164039665Y-129250940D01*
X164248853Y-129611789D01*
X165186150Y-129989324D01*
X166196577Y-129979433D01*
X167084147Y-129611789D01*
X167293335Y-129250940D01*
X165666500Y-127624105D01*
X164039665Y-129250940D01*
X120303335Y-129250940D01*
X118676500Y-127624105D01*
X117049665Y-129250940D01*
X115231000Y-129250940D01*
X115231000Y-126964150D01*
X116131676Y-126964150D01*
X116141567Y-127974577D01*
X116509211Y-128862147D01*
X116870060Y-129071335D01*
X118496895Y-127444500D01*
X118856105Y-127444500D01*
X120482940Y-129071335D01*
X120843789Y-128862147D01*
X121221324Y-127924850D01*
X121218834Y-127670463D01*
X125795302Y-127670463D01*
X125968643Y-128089980D01*
X126289331Y-128411229D01*
X126708545Y-128585302D01*
X127162463Y-128585698D01*
X127581980Y-128412357D01*
X127903229Y-128091669D01*
X128077302Y-127672455D01*
X128077303Y-127670463D01*
X128585302Y-127670463D01*
X128758643Y-128089980D01*
X129079331Y-128411229D01*
X129498545Y-128585302D01*
X129952463Y-128585698D01*
X130371980Y-128412357D01*
X130693229Y-128091669D01*
X130867302Y-127672455D01*
X130867303Y-127670463D01*
X131335302Y-127670463D01*
X131508643Y-128089980D01*
X131829331Y-128411229D01*
X132248545Y-128585302D01*
X132702463Y-128585698D01*
X133121980Y-128412357D01*
X133443229Y-128091669D01*
X133617302Y-127672455D01*
X133617303Y-127670463D01*
X134025302Y-127670463D01*
X134198643Y-128089980D01*
X134519331Y-128411229D01*
X134938545Y-128585302D01*
X135392463Y-128585698D01*
X135811980Y-128412357D01*
X136133229Y-128091669D01*
X136307302Y-127672455D01*
X136307303Y-127670463D01*
X136865302Y-127670463D01*
X137038643Y-128089980D01*
X137359331Y-128411229D01*
X137778545Y-128585302D01*
X138232463Y-128585698D01*
X138651980Y-128412357D01*
X138973229Y-128091669D01*
X139147302Y-127672455D01*
X139147303Y-127670463D01*
X139615302Y-127670463D01*
X139788643Y-128089980D01*
X140109331Y-128411229D01*
X140528545Y-128585302D01*
X140982463Y-128585698D01*
X141401980Y-128412357D01*
X141723229Y-128091669D01*
X141897302Y-127672455D01*
X141897303Y-127670463D01*
X142355302Y-127670463D01*
X142528643Y-128089980D01*
X142849331Y-128411229D01*
X143268545Y-128585302D01*
X143722463Y-128585698D01*
X144141980Y-128412357D01*
X144463229Y-128091669D01*
X144637302Y-127672455D01*
X144637303Y-127670463D01*
X145145302Y-127670463D01*
X145318643Y-128089980D01*
X145639331Y-128411229D01*
X146058545Y-128585302D01*
X146512463Y-128585698D01*
X146931980Y-128412357D01*
X147253229Y-128091669D01*
X147427302Y-127672455D01*
X147427303Y-127670463D01*
X147895302Y-127670463D01*
X148068643Y-128089980D01*
X148389331Y-128411229D01*
X148808545Y-128585302D01*
X149262463Y-128585698D01*
X149681980Y-128412357D01*
X150003229Y-128091669D01*
X150177302Y-127672455D01*
X150177303Y-127670463D01*
X150635302Y-127670463D01*
X150808643Y-128089980D01*
X151129331Y-128411229D01*
X151548545Y-128585302D01*
X152002463Y-128585698D01*
X152395583Y-128423264D01*
X153777341Y-128423264D01*
X153846559Y-128665242D01*
X154369280Y-128851655D01*
X154923549Y-128823841D01*
X155306441Y-128665242D01*
X155375659Y-128423264D01*
X154576500Y-127624105D01*
X153777341Y-128423264D01*
X152395583Y-128423264D01*
X152421980Y-128412357D01*
X152743229Y-128091669D01*
X152917302Y-127672455D01*
X152917681Y-127237280D01*
X153169345Y-127237280D01*
X153197159Y-127791549D01*
X153355758Y-128174441D01*
X153597736Y-128243659D01*
X154396895Y-127444500D01*
X154756105Y-127444500D01*
X155555264Y-128243659D01*
X155797242Y-128174441D01*
X155976198Y-127672631D01*
X156148643Y-128089980D01*
X156469331Y-128411229D01*
X156888545Y-128585302D01*
X157342463Y-128585698D01*
X157761980Y-128412357D01*
X158083229Y-128091669D01*
X158257302Y-127672455D01*
X158257698Y-127218537D01*
X158152588Y-126964150D01*
X163121676Y-126964150D01*
X163131567Y-127974577D01*
X163499211Y-128862147D01*
X163860060Y-129071335D01*
X165486895Y-127444500D01*
X165846105Y-127444500D01*
X167472940Y-129071335D01*
X167833789Y-128862147D01*
X168211324Y-127924850D01*
X168201433Y-126914423D01*
X167833789Y-126026853D01*
X167472940Y-125817665D01*
X165846105Y-127444500D01*
X165486895Y-127444500D01*
X163860060Y-125817665D01*
X163499211Y-126026853D01*
X163121676Y-126964150D01*
X158152588Y-126964150D01*
X158084357Y-126799020D01*
X157763669Y-126477771D01*
X157344455Y-126303698D01*
X156890537Y-126303302D01*
X156471020Y-126476643D01*
X156149771Y-126797331D01*
X155975698Y-127216545D01*
X155975461Y-127488429D01*
X155955841Y-127097451D01*
X155797242Y-126714559D01*
X155555264Y-126645341D01*
X154756105Y-127444500D01*
X154396895Y-127444500D01*
X153597736Y-126645341D01*
X153355758Y-126714559D01*
X153169345Y-127237280D01*
X152917681Y-127237280D01*
X152917698Y-127218537D01*
X152744357Y-126799020D01*
X152423669Y-126477771D01*
X152394686Y-126465736D01*
X153777341Y-126465736D01*
X154576500Y-127264895D01*
X155375659Y-126465736D01*
X155306441Y-126223758D01*
X154783720Y-126037345D01*
X154229451Y-126065159D01*
X153846559Y-126223758D01*
X153777341Y-126465736D01*
X152394686Y-126465736D01*
X152004455Y-126303698D01*
X151550537Y-126303302D01*
X151131020Y-126476643D01*
X150809771Y-126797331D01*
X150635698Y-127216545D01*
X150635302Y-127670463D01*
X150177303Y-127670463D01*
X150177698Y-127218537D01*
X150004357Y-126799020D01*
X149683669Y-126477771D01*
X149264455Y-126303698D01*
X148810537Y-126303302D01*
X148391020Y-126476643D01*
X148069771Y-126797331D01*
X147895698Y-127216545D01*
X147895302Y-127670463D01*
X147427303Y-127670463D01*
X147427698Y-127218537D01*
X147254357Y-126799020D01*
X146933669Y-126477771D01*
X146514455Y-126303698D01*
X146060537Y-126303302D01*
X145641020Y-126476643D01*
X145319771Y-126797331D01*
X145145698Y-127216545D01*
X145145302Y-127670463D01*
X144637303Y-127670463D01*
X144637698Y-127218537D01*
X144464357Y-126799020D01*
X144143669Y-126477771D01*
X143724455Y-126303698D01*
X143270537Y-126303302D01*
X142851020Y-126476643D01*
X142529771Y-126797331D01*
X142355698Y-127216545D01*
X142355302Y-127670463D01*
X141897303Y-127670463D01*
X141897698Y-127218537D01*
X141724357Y-126799020D01*
X141403669Y-126477771D01*
X140984455Y-126303698D01*
X140530537Y-126303302D01*
X140111020Y-126476643D01*
X139789771Y-126797331D01*
X139615698Y-127216545D01*
X139615302Y-127670463D01*
X139147303Y-127670463D01*
X139147698Y-127218537D01*
X138974357Y-126799020D01*
X138653669Y-126477771D01*
X138234455Y-126303698D01*
X137780537Y-126303302D01*
X137361020Y-126476643D01*
X137039771Y-126797331D01*
X136865698Y-127216545D01*
X136865302Y-127670463D01*
X136307303Y-127670463D01*
X136307698Y-127218537D01*
X136134357Y-126799020D01*
X135813669Y-126477771D01*
X135394455Y-126303698D01*
X134940537Y-126303302D01*
X134521020Y-126476643D01*
X134199771Y-126797331D01*
X134025698Y-127216545D01*
X134025302Y-127670463D01*
X133617303Y-127670463D01*
X133617698Y-127218537D01*
X133444357Y-126799020D01*
X133123669Y-126477771D01*
X132704455Y-126303698D01*
X132250537Y-126303302D01*
X131831020Y-126476643D01*
X131509771Y-126797331D01*
X131335698Y-127216545D01*
X131335302Y-127670463D01*
X130867303Y-127670463D01*
X130867698Y-127218537D01*
X130694357Y-126799020D01*
X130373669Y-126477771D01*
X129954455Y-126303698D01*
X129500537Y-126303302D01*
X129081020Y-126476643D01*
X128759771Y-126797331D01*
X128585698Y-127216545D01*
X128585302Y-127670463D01*
X128077303Y-127670463D01*
X128077698Y-127218537D01*
X127904357Y-126799020D01*
X127583669Y-126477771D01*
X127164455Y-126303698D01*
X126710537Y-126303302D01*
X126291020Y-126476643D01*
X125969771Y-126797331D01*
X125795698Y-127216545D01*
X125795302Y-127670463D01*
X121218834Y-127670463D01*
X121211433Y-126914423D01*
X120843789Y-126026853D01*
X120596099Y-125883264D01*
X124737341Y-125883264D01*
X124806559Y-126125242D01*
X125329280Y-126311655D01*
X125883549Y-126283841D01*
X126266441Y-126125242D01*
X126335659Y-125883264D01*
X125536500Y-125084105D01*
X124737341Y-125883264D01*
X120596099Y-125883264D01*
X120482940Y-125817665D01*
X118856105Y-127444500D01*
X118496895Y-127444500D01*
X116870060Y-125817665D01*
X116509211Y-126026853D01*
X116131676Y-126964150D01*
X115231000Y-126964150D01*
X115231000Y-125638060D01*
X117049665Y-125638060D01*
X118676500Y-127264895D01*
X120303335Y-125638060D01*
X120094147Y-125277211D01*
X119156850Y-124899676D01*
X118146423Y-124909567D01*
X117258853Y-125277211D01*
X117049665Y-125638060D01*
X115231000Y-125638060D01*
X115231000Y-124697280D01*
X124129345Y-124697280D01*
X124157159Y-125251549D01*
X124315758Y-125634441D01*
X124557736Y-125703659D01*
X125356895Y-124904500D01*
X125716105Y-124904500D01*
X126515264Y-125703659D01*
X126757242Y-125634441D01*
X126936970Y-125130463D01*
X127195302Y-125130463D01*
X127368643Y-125549980D01*
X127689331Y-125871229D01*
X128108545Y-126045302D01*
X128562463Y-126045698D01*
X128981980Y-125872357D01*
X129303229Y-125551669D01*
X129477302Y-125132455D01*
X129477303Y-125130463D01*
X129985302Y-125130463D01*
X130158643Y-125549980D01*
X130479331Y-125871229D01*
X130898545Y-126045302D01*
X131352463Y-126045698D01*
X131771980Y-125872357D01*
X132093229Y-125551669D01*
X132267302Y-125132455D01*
X132267303Y-125130463D01*
X132655302Y-125130463D01*
X132828643Y-125549980D01*
X133149331Y-125871229D01*
X133568545Y-126045302D01*
X134022463Y-126045698D01*
X134441980Y-125872357D01*
X134763229Y-125551669D01*
X134937302Y-125132455D01*
X134937303Y-125130463D01*
X135445302Y-125130463D01*
X135618643Y-125549980D01*
X135939331Y-125871229D01*
X136358545Y-126045302D01*
X136812463Y-126045698D01*
X137231980Y-125872357D01*
X137553229Y-125551669D01*
X137727302Y-125132455D01*
X137727303Y-125130463D01*
X138245302Y-125130463D01*
X138418643Y-125549980D01*
X138739331Y-125871229D01*
X139158545Y-126045302D01*
X139612463Y-126045698D01*
X140031980Y-125872357D01*
X140353229Y-125551669D01*
X140527302Y-125132455D01*
X140527303Y-125130463D01*
X141035302Y-125130463D01*
X141208643Y-125549980D01*
X141529331Y-125871229D01*
X141948545Y-126045302D01*
X142402463Y-126045698D01*
X142821980Y-125872357D01*
X143143229Y-125551669D01*
X143317302Y-125132455D01*
X143317303Y-125130463D01*
X143705302Y-125130463D01*
X143878643Y-125549980D01*
X144199331Y-125871229D01*
X144618545Y-126045302D01*
X145072463Y-126045698D01*
X145491980Y-125872357D01*
X145813229Y-125551669D01*
X145987302Y-125132455D01*
X145987303Y-125130463D01*
X146495302Y-125130463D01*
X146668643Y-125549980D01*
X146989331Y-125871229D01*
X147408545Y-126045302D01*
X147862463Y-126045698D01*
X148281980Y-125872357D01*
X148603229Y-125551669D01*
X148777302Y-125132455D01*
X148777303Y-125130463D01*
X149285302Y-125130463D01*
X149458643Y-125549980D01*
X149779331Y-125871229D01*
X150198545Y-126045302D01*
X150652463Y-126045698D01*
X151071980Y-125872357D01*
X151393229Y-125551669D01*
X151567302Y-125132455D01*
X151567303Y-125130463D01*
X152085302Y-125130463D01*
X152258643Y-125549980D01*
X152579331Y-125871229D01*
X152998545Y-126045302D01*
X153452463Y-126045698D01*
X153845583Y-125883264D01*
X155097341Y-125883264D01*
X155166559Y-126125242D01*
X155689280Y-126311655D01*
X156243549Y-126283841D01*
X156626441Y-126125242D01*
X156695659Y-125883264D01*
X155896500Y-125084105D01*
X155097341Y-125883264D01*
X153845583Y-125883264D01*
X153871980Y-125872357D01*
X154193229Y-125551669D01*
X154367302Y-125132455D01*
X154367681Y-124697280D01*
X154489345Y-124697280D01*
X154517159Y-125251549D01*
X154675758Y-125634441D01*
X154917736Y-125703659D01*
X155716895Y-124904500D01*
X156076105Y-124904500D01*
X156875264Y-125703659D01*
X157117242Y-125634441D01*
X157303655Y-125111720D01*
X157275841Y-124557451D01*
X157117242Y-124174559D01*
X157012160Y-124144500D01*
X157538036Y-124144500D01*
X157538036Y-125664500D01*
X157564603Y-125805690D01*
X157648046Y-125935365D01*
X157775366Y-126022359D01*
X157926500Y-126052964D01*
X159446500Y-126052964D01*
X159587690Y-126026397D01*
X159717365Y-125942954D01*
X159804359Y-125815634D01*
X159834964Y-125664500D01*
X159834964Y-125638060D01*
X164039665Y-125638060D01*
X165666500Y-127264895D01*
X167293335Y-125638060D01*
X167084147Y-125277211D01*
X166146850Y-124899676D01*
X165136423Y-124909567D01*
X164248853Y-125277211D01*
X164039665Y-125638060D01*
X159834964Y-125638060D01*
X159834964Y-124144500D01*
X159808397Y-124003310D01*
X159724954Y-123873635D01*
X159597634Y-123786641D01*
X159446500Y-123756036D01*
X157926500Y-123756036D01*
X157785310Y-123782603D01*
X157655635Y-123866046D01*
X157568641Y-123993366D01*
X157538036Y-124144500D01*
X157012160Y-124144500D01*
X156875264Y-124105341D01*
X156076105Y-124904500D01*
X155716895Y-124904500D01*
X154917736Y-124105341D01*
X154675758Y-124174559D01*
X154489345Y-124697280D01*
X154367681Y-124697280D01*
X154367698Y-124678537D01*
X154194357Y-124259020D01*
X153873669Y-123937771D01*
X153844686Y-123925736D01*
X155097341Y-123925736D01*
X155896500Y-124724895D01*
X156695659Y-123925736D01*
X156626441Y-123683758D01*
X156103720Y-123497345D01*
X155549451Y-123525159D01*
X155166559Y-123683758D01*
X155097341Y-123925736D01*
X153844686Y-123925736D01*
X153454455Y-123763698D01*
X153000537Y-123763302D01*
X152581020Y-123936643D01*
X152259771Y-124257331D01*
X152085698Y-124676545D01*
X152085302Y-125130463D01*
X151567303Y-125130463D01*
X151567698Y-124678537D01*
X151394357Y-124259020D01*
X151073669Y-123937771D01*
X150654455Y-123763698D01*
X150200537Y-123763302D01*
X149781020Y-123936643D01*
X149459771Y-124257331D01*
X149285698Y-124676545D01*
X149285302Y-125130463D01*
X148777303Y-125130463D01*
X148777698Y-124678537D01*
X148604357Y-124259020D01*
X148283669Y-123937771D01*
X147864455Y-123763698D01*
X147410537Y-123763302D01*
X146991020Y-123936643D01*
X146669771Y-124257331D01*
X146495698Y-124676545D01*
X146495302Y-125130463D01*
X145987303Y-125130463D01*
X145987698Y-124678537D01*
X145814357Y-124259020D01*
X145493669Y-123937771D01*
X145074455Y-123763698D01*
X144620537Y-123763302D01*
X144201020Y-123936643D01*
X143879771Y-124257331D01*
X143705698Y-124676545D01*
X143705302Y-125130463D01*
X143317303Y-125130463D01*
X143317698Y-124678537D01*
X143144357Y-124259020D01*
X142823669Y-123937771D01*
X142404455Y-123763698D01*
X141950537Y-123763302D01*
X141531020Y-123936643D01*
X141209771Y-124257331D01*
X141035698Y-124676545D01*
X141035302Y-125130463D01*
X140527303Y-125130463D01*
X140527698Y-124678537D01*
X140354357Y-124259020D01*
X140033669Y-123937771D01*
X139614455Y-123763698D01*
X139160537Y-123763302D01*
X138741020Y-123936643D01*
X138419771Y-124257331D01*
X138245698Y-124676545D01*
X138245302Y-125130463D01*
X137727303Y-125130463D01*
X137727698Y-124678537D01*
X137554357Y-124259020D01*
X137233669Y-123937771D01*
X136814455Y-123763698D01*
X136360537Y-123763302D01*
X135941020Y-123936643D01*
X135619771Y-124257331D01*
X135445698Y-124676545D01*
X135445302Y-125130463D01*
X134937303Y-125130463D01*
X134937698Y-124678537D01*
X134764357Y-124259020D01*
X134443669Y-123937771D01*
X134024455Y-123763698D01*
X133570537Y-123763302D01*
X133151020Y-123936643D01*
X132829771Y-124257331D01*
X132655698Y-124676545D01*
X132655302Y-125130463D01*
X132267303Y-125130463D01*
X132267698Y-124678537D01*
X132094357Y-124259020D01*
X131773669Y-123937771D01*
X131354455Y-123763698D01*
X130900537Y-123763302D01*
X130481020Y-123936643D01*
X130159771Y-124257331D01*
X129985698Y-124676545D01*
X129985302Y-125130463D01*
X129477303Y-125130463D01*
X129477698Y-124678537D01*
X129304357Y-124259020D01*
X128983669Y-123937771D01*
X128564455Y-123763698D01*
X128110537Y-123763302D01*
X127691020Y-123936643D01*
X127369771Y-124257331D01*
X127195698Y-124676545D01*
X127195302Y-125130463D01*
X126936970Y-125130463D01*
X126943655Y-125111720D01*
X126915841Y-124557451D01*
X126757242Y-124174559D01*
X126515264Y-124105341D01*
X125716105Y-124904500D01*
X125356895Y-124904500D01*
X124557736Y-124105341D01*
X124315758Y-124174559D01*
X124129345Y-124697280D01*
X115231000Y-124697280D01*
X115231000Y-123925736D01*
X124737341Y-123925736D01*
X125536500Y-124724895D01*
X126335659Y-123925736D01*
X126266441Y-123683758D01*
X125743720Y-123497345D01*
X125189451Y-123525159D01*
X124806559Y-123683758D01*
X124737341Y-123925736D01*
X115231000Y-123925736D01*
X115231000Y-119435413D01*
X115919792Y-119435413D01*
X115989257Y-119677597D01*
X116512702Y-119864344D01*
X117067768Y-119836562D01*
X117451543Y-119677597D01*
X117521008Y-119435413D01*
X118459792Y-119435413D01*
X118529257Y-119677597D01*
X119052702Y-119864344D01*
X119607768Y-119836562D01*
X119991543Y-119677597D01*
X120061008Y-119435413D01*
X119260400Y-118634805D01*
X118459792Y-119435413D01*
X117521008Y-119435413D01*
X116720400Y-118634805D01*
X115919792Y-119435413D01*
X115231000Y-119435413D01*
X115231000Y-118247502D01*
X115311256Y-118247502D01*
X115339038Y-118802568D01*
X115498003Y-119186343D01*
X115740187Y-119255808D01*
X116540795Y-118455200D01*
X116900005Y-118455200D01*
X117700613Y-119255808D01*
X117942797Y-119186343D01*
X117986853Y-119062856D01*
X118038003Y-119186343D01*
X118280187Y-119255808D01*
X119080795Y-118455200D01*
X119440005Y-118455200D01*
X120240613Y-119255808D01*
X120482797Y-119186343D01*
X120669544Y-118662898D01*
X120641762Y-118107832D01*
X120482797Y-117724057D01*
X120240613Y-117654592D01*
X119440005Y-118455200D01*
X119080795Y-118455200D01*
X118280187Y-117654592D01*
X118038003Y-117724057D01*
X117993947Y-117847544D01*
X117942797Y-117724057D01*
X117700613Y-117654592D01*
X116900005Y-118455200D01*
X116540795Y-118455200D01*
X115740187Y-117654592D01*
X115498003Y-117724057D01*
X115311256Y-118247502D01*
X115231000Y-118247502D01*
X115231000Y-116895413D01*
X115919792Y-116895413D01*
X115989257Y-117137597D01*
X116112744Y-117181653D01*
X115989257Y-117232803D01*
X115919792Y-117474987D01*
X116720400Y-118275595D01*
X117521008Y-117474987D01*
X117451543Y-117232803D01*
X117328056Y-117188747D01*
X117451543Y-117137597D01*
X117521008Y-116895413D01*
X118459792Y-116895413D01*
X118529257Y-117137597D01*
X118652744Y-117181653D01*
X118529257Y-117232803D01*
X118459792Y-117474987D01*
X119260400Y-118275595D01*
X120061008Y-117474987D01*
X119991543Y-117232803D01*
X119868056Y-117188747D01*
X119991543Y-117137597D01*
X120061008Y-116895413D01*
X119260400Y-116094805D01*
X118459792Y-116895413D01*
X117521008Y-116895413D01*
X116720400Y-116094805D01*
X115919792Y-116895413D01*
X115231000Y-116895413D01*
X115231000Y-115707502D01*
X115311256Y-115707502D01*
X115339038Y-116262568D01*
X115498003Y-116646343D01*
X115740187Y-116715808D01*
X116540795Y-115915200D01*
X116900005Y-115915200D01*
X117700613Y-116715808D01*
X117942797Y-116646343D01*
X117986853Y-116522856D01*
X118038003Y-116646343D01*
X118280187Y-116715808D01*
X119080795Y-115915200D01*
X119440005Y-115915200D01*
X120240613Y-116715808D01*
X120482797Y-116646343D01*
X120669544Y-116122898D01*
X120641762Y-115567832D01*
X120482797Y-115184057D01*
X120240613Y-115114592D01*
X119440005Y-115915200D01*
X119080795Y-115915200D01*
X118280187Y-115114592D01*
X118038003Y-115184057D01*
X117993947Y-115307544D01*
X117942797Y-115184057D01*
X117700613Y-115114592D01*
X116900005Y-115915200D01*
X116540795Y-115915200D01*
X115740187Y-115114592D01*
X115498003Y-115184057D01*
X115311256Y-115707502D01*
X115231000Y-115707502D01*
X115231000Y-113601559D01*
X115577202Y-113601559D01*
X115750846Y-114021812D01*
X116072097Y-114343623D01*
X116492046Y-114518001D01*
X116686060Y-114518170D01*
X116373032Y-114533838D01*
X115989257Y-114692803D01*
X115919792Y-114934987D01*
X116720400Y-115735595D01*
X117521008Y-114934987D01*
X117451543Y-114692803D01*
X116954142Y-114515348D01*
X117367012Y-114344754D01*
X117688823Y-114023503D01*
X117863201Y-113603554D01*
X117863202Y-113601559D01*
X118117202Y-113601559D01*
X118290846Y-114021812D01*
X118612097Y-114343623D01*
X119032046Y-114518001D01*
X119226060Y-114518170D01*
X118913032Y-114533838D01*
X118529257Y-114692803D01*
X118459792Y-114934987D01*
X119260400Y-115735595D01*
X120061008Y-114934987D01*
X119991543Y-114692803D01*
X119494142Y-114515348D01*
X119907012Y-114344754D01*
X120228823Y-114023503D01*
X120403201Y-113603554D01*
X120403598Y-113148841D01*
X120229954Y-112728588D01*
X119908703Y-112406777D01*
X119488754Y-112232399D01*
X119034041Y-112232002D01*
X118613788Y-112405646D01*
X118291977Y-112726897D01*
X118117599Y-113146846D01*
X118117202Y-113601559D01*
X117863202Y-113601559D01*
X117863598Y-113148841D01*
X117689954Y-112728588D01*
X117368703Y-112406777D01*
X116948754Y-112232399D01*
X116494041Y-112232002D01*
X116073788Y-112405646D01*
X115751977Y-112726897D01*
X115577599Y-113146846D01*
X115577202Y-113601559D01*
X115231000Y-113601559D01*
X115231000Y-111061559D01*
X115577202Y-111061559D01*
X115750846Y-111481812D01*
X116072097Y-111803623D01*
X116492046Y-111978001D01*
X116946759Y-111978398D01*
X117367012Y-111804754D01*
X117688823Y-111483503D01*
X117863201Y-111063554D01*
X117863202Y-111061559D01*
X118117202Y-111061559D01*
X118290846Y-111481812D01*
X118612097Y-111803623D01*
X119032046Y-111978001D01*
X119486759Y-111978398D01*
X119907012Y-111804754D01*
X120228823Y-111483503D01*
X120403201Y-111063554D01*
X120403598Y-110608841D01*
X120229954Y-110188588D01*
X119908703Y-109866777D01*
X119488754Y-109692399D01*
X119034041Y-109692002D01*
X118613788Y-109865646D01*
X118291977Y-110186897D01*
X118117599Y-110606846D01*
X118117202Y-111061559D01*
X117863202Y-111061559D01*
X117863598Y-110608841D01*
X117689954Y-110188588D01*
X117368703Y-109866777D01*
X116948754Y-109692399D01*
X116494041Y-109692002D01*
X116073788Y-109865646D01*
X115751977Y-110186897D01*
X115577599Y-110606846D01*
X115577202Y-111061559D01*
X115231000Y-111061559D01*
X115231000Y-108521559D01*
X115577202Y-108521559D01*
X115750846Y-108941812D01*
X116072097Y-109263623D01*
X116492046Y-109438001D01*
X116946759Y-109438398D01*
X117367012Y-109264754D01*
X117688823Y-108943503D01*
X117863201Y-108523554D01*
X117863202Y-108521559D01*
X118117202Y-108521559D01*
X118290846Y-108941812D01*
X118612097Y-109263623D01*
X119032046Y-109438001D01*
X119486759Y-109438398D01*
X119907012Y-109264754D01*
X120228823Y-108943503D01*
X120403201Y-108523554D01*
X120403598Y-108068841D01*
X120229954Y-107648588D01*
X119908703Y-107326777D01*
X119488754Y-107152399D01*
X119034041Y-107152002D01*
X118613788Y-107325646D01*
X118291977Y-107646897D01*
X118117599Y-108066846D01*
X118117202Y-108521559D01*
X117863202Y-108521559D01*
X117863598Y-108068841D01*
X117689954Y-107648588D01*
X117368703Y-107326777D01*
X116948754Y-107152399D01*
X116494041Y-107152002D01*
X116073788Y-107325646D01*
X115751977Y-107646897D01*
X115577599Y-108066846D01*
X115577202Y-108521559D01*
X115231000Y-108521559D01*
X115231000Y-105981559D01*
X115577202Y-105981559D01*
X115750846Y-106401812D01*
X116072097Y-106723623D01*
X116492046Y-106898001D01*
X116946759Y-106898398D01*
X117367012Y-106724754D01*
X117688823Y-106403503D01*
X117863201Y-105983554D01*
X117863202Y-105981559D01*
X118117202Y-105981559D01*
X118290846Y-106401812D01*
X118612097Y-106723623D01*
X119032046Y-106898001D01*
X119486759Y-106898398D01*
X119907012Y-106724754D01*
X120228823Y-106403503D01*
X120403201Y-105983554D01*
X120403598Y-105528841D01*
X120229954Y-105108588D01*
X119908703Y-104786777D01*
X119488754Y-104612399D01*
X119034041Y-104612002D01*
X118613788Y-104785646D01*
X118291977Y-105106897D01*
X118117599Y-105526846D01*
X118117202Y-105981559D01*
X117863202Y-105981559D01*
X117863598Y-105528841D01*
X117689954Y-105108588D01*
X117368703Y-104786777D01*
X116948754Y-104612399D01*
X116494041Y-104612002D01*
X116073788Y-104785646D01*
X115751977Y-105106897D01*
X115577599Y-105526846D01*
X115577202Y-105981559D01*
X115231000Y-105981559D01*
X115231000Y-103441559D01*
X115577202Y-103441559D01*
X115750846Y-103861812D01*
X116072097Y-104183623D01*
X116492046Y-104358001D01*
X116946759Y-104358398D01*
X117367012Y-104184754D01*
X117688823Y-103863503D01*
X117863201Y-103443554D01*
X117863202Y-103441559D01*
X118117202Y-103441559D01*
X118290846Y-103861812D01*
X118612097Y-104183623D01*
X119032046Y-104358001D01*
X119486759Y-104358398D01*
X119907012Y-104184754D01*
X120228823Y-103863503D01*
X120403201Y-103443554D01*
X120403598Y-102988841D01*
X120229954Y-102568588D01*
X119908703Y-102246777D01*
X119488754Y-102072399D01*
X119034041Y-102072002D01*
X118613788Y-102245646D01*
X118291977Y-102566897D01*
X118117599Y-102986846D01*
X118117202Y-103441559D01*
X117863202Y-103441559D01*
X117863598Y-102988841D01*
X117689954Y-102568588D01*
X117368703Y-102246777D01*
X116948754Y-102072399D01*
X116494041Y-102072002D01*
X116073788Y-102245646D01*
X115751977Y-102566897D01*
X115577599Y-102986846D01*
X115577202Y-103441559D01*
X115231000Y-103441559D01*
X115231000Y-100901559D01*
X115577202Y-100901559D01*
X115750846Y-101321812D01*
X116072097Y-101643623D01*
X116492046Y-101818001D01*
X116946759Y-101818398D01*
X117367012Y-101644754D01*
X117688823Y-101323503D01*
X117863201Y-100903554D01*
X117863202Y-100901559D01*
X118117202Y-100901559D01*
X118290846Y-101321812D01*
X118612097Y-101643623D01*
X119032046Y-101818001D01*
X119486759Y-101818398D01*
X119907012Y-101644754D01*
X120228823Y-101323503D01*
X120403201Y-100903554D01*
X120403598Y-100448841D01*
X120229954Y-100028588D01*
X119908703Y-99706777D01*
X119488754Y-99532399D01*
X119034041Y-99532002D01*
X118613788Y-99705646D01*
X118291977Y-100026897D01*
X118117599Y-100446846D01*
X118117202Y-100901559D01*
X117863202Y-100901559D01*
X117863598Y-100448841D01*
X117689954Y-100028588D01*
X117368703Y-99706777D01*
X116948754Y-99532399D01*
X116494041Y-99532002D01*
X116073788Y-99705646D01*
X115751977Y-100026897D01*
X115577599Y-100446846D01*
X115577202Y-100901559D01*
X115231000Y-100901559D01*
X115231000Y-98361559D01*
X115577202Y-98361559D01*
X115750846Y-98781812D01*
X116072097Y-99103623D01*
X116492046Y-99278001D01*
X116946759Y-99278398D01*
X117367012Y-99104754D01*
X117688823Y-98783503D01*
X117863201Y-98363554D01*
X117863202Y-98361559D01*
X118117202Y-98361559D01*
X118290846Y-98781812D01*
X118612097Y-99103623D01*
X119032046Y-99278001D01*
X119486759Y-99278398D01*
X119907012Y-99104754D01*
X120228823Y-98783503D01*
X120403201Y-98363554D01*
X120403598Y-97908841D01*
X120229954Y-97488588D01*
X119908703Y-97166777D01*
X119488754Y-96992399D01*
X119034041Y-96992002D01*
X118613788Y-97165646D01*
X118291977Y-97486897D01*
X118117599Y-97906846D01*
X118117202Y-98361559D01*
X117863202Y-98361559D01*
X117863598Y-97908841D01*
X117689954Y-97488588D01*
X117368703Y-97166777D01*
X116948754Y-96992399D01*
X116494041Y-96992002D01*
X116073788Y-97165646D01*
X115751977Y-97486897D01*
X115577599Y-97906846D01*
X115577202Y-98361559D01*
X115231000Y-98361559D01*
X115231000Y-95821559D01*
X115577202Y-95821559D01*
X115750846Y-96241812D01*
X116072097Y-96563623D01*
X116492046Y-96738001D01*
X116946759Y-96738398D01*
X117367012Y-96564754D01*
X117688823Y-96243503D01*
X117863201Y-95823554D01*
X117863202Y-95821559D01*
X118117202Y-95821559D01*
X118290846Y-96241812D01*
X118612097Y-96563623D01*
X119032046Y-96738001D01*
X119486759Y-96738398D01*
X119907012Y-96564754D01*
X120228823Y-96243503D01*
X120403201Y-95823554D01*
X120403598Y-95368841D01*
X120229954Y-94948588D01*
X119908703Y-94626777D01*
X119488754Y-94452399D01*
X119034041Y-94452002D01*
X118613788Y-94625646D01*
X118291977Y-94946897D01*
X118117599Y-95366846D01*
X118117202Y-95821559D01*
X117863202Y-95821559D01*
X117863598Y-95368841D01*
X117689954Y-94948588D01*
X117368703Y-94626777D01*
X116948754Y-94452399D01*
X116494041Y-94452002D01*
X116073788Y-94625646D01*
X115751977Y-94946897D01*
X115577599Y-95366846D01*
X115577202Y-95821559D01*
X115231000Y-95821559D01*
X115231000Y-93281559D01*
X115577202Y-93281559D01*
X115750846Y-93701812D01*
X116072097Y-94023623D01*
X116492046Y-94198001D01*
X116946759Y-94198398D01*
X117367012Y-94024754D01*
X117688823Y-93703503D01*
X117863201Y-93283554D01*
X117863202Y-93281559D01*
X118117202Y-93281559D01*
X118290846Y-93701812D01*
X118612097Y-94023623D01*
X119032046Y-94198001D01*
X119486759Y-94198398D01*
X119907012Y-94024754D01*
X120228823Y-93703503D01*
X120403201Y-93283554D01*
X120403598Y-92828841D01*
X120229954Y-92408588D01*
X119908703Y-92086777D01*
X119488754Y-91912399D01*
X119034041Y-91912002D01*
X118613788Y-92085646D01*
X118291977Y-92406897D01*
X118117599Y-92826846D01*
X118117202Y-93281559D01*
X117863202Y-93281559D01*
X117863598Y-92828841D01*
X117689954Y-92408588D01*
X117368703Y-92086777D01*
X116948754Y-91912399D01*
X116494041Y-91912002D01*
X116073788Y-92085646D01*
X115751977Y-92406897D01*
X115577599Y-92826846D01*
X115577202Y-93281559D01*
X115231000Y-93281559D01*
X115231000Y-90741559D01*
X115577202Y-90741559D01*
X115750846Y-91161812D01*
X116072097Y-91483623D01*
X116492046Y-91658001D01*
X116946759Y-91658398D01*
X117367012Y-91484754D01*
X117688823Y-91163503D01*
X117863201Y-90743554D01*
X117863202Y-90741559D01*
X118117202Y-90741559D01*
X118290846Y-91161812D01*
X118612097Y-91483623D01*
X119032046Y-91658001D01*
X119486759Y-91658398D01*
X119907012Y-91484754D01*
X120228823Y-91163503D01*
X120403201Y-90743554D01*
X120403598Y-90288841D01*
X120229954Y-89868588D01*
X119908703Y-89546777D01*
X119488754Y-89372399D01*
X119034041Y-89372002D01*
X118613788Y-89545646D01*
X118291977Y-89866897D01*
X118117599Y-90286846D01*
X118117202Y-90741559D01*
X117863202Y-90741559D01*
X117863598Y-90288841D01*
X117689954Y-89868588D01*
X117368703Y-89546777D01*
X116948754Y-89372399D01*
X116494041Y-89372002D01*
X116073788Y-89545646D01*
X115751977Y-89866897D01*
X115577599Y-90286846D01*
X115577202Y-90741559D01*
X115231000Y-90741559D01*
X115231000Y-88201559D01*
X115577202Y-88201559D01*
X115750846Y-88621812D01*
X116072097Y-88943623D01*
X116492046Y-89118001D01*
X116946759Y-89118398D01*
X117367012Y-88944754D01*
X117688823Y-88623503D01*
X117863201Y-88203554D01*
X117863202Y-88201559D01*
X118117202Y-88201559D01*
X118290846Y-88621812D01*
X118612097Y-88943623D01*
X119032046Y-89118001D01*
X119486759Y-89118398D01*
X119907012Y-88944754D01*
X120228823Y-88623503D01*
X120403201Y-88203554D01*
X120403598Y-87748841D01*
X120229954Y-87328588D01*
X119908703Y-87006777D01*
X119488754Y-86832399D01*
X119034041Y-86832002D01*
X118613788Y-87005646D01*
X118291977Y-87326897D01*
X118117599Y-87746846D01*
X118117202Y-88201559D01*
X117863202Y-88201559D01*
X117863598Y-87748841D01*
X117689954Y-87328588D01*
X117368703Y-87006777D01*
X116948754Y-86832399D01*
X116494041Y-86832002D01*
X116073788Y-87005646D01*
X115751977Y-87326897D01*
X115577599Y-87746846D01*
X115577202Y-88201559D01*
X115231000Y-88201559D01*
X115231000Y-85661559D01*
X115577202Y-85661559D01*
X115750846Y-86081812D01*
X116072097Y-86403623D01*
X116492046Y-86578001D01*
X116946759Y-86578398D01*
X117367012Y-86404754D01*
X117688823Y-86083503D01*
X117863201Y-85663554D01*
X117863202Y-85661559D01*
X118117202Y-85661559D01*
X118290846Y-86081812D01*
X118612097Y-86403623D01*
X119032046Y-86578001D01*
X119486759Y-86578398D01*
X119907012Y-86404754D01*
X120228823Y-86083503D01*
X120403201Y-85663554D01*
X120403598Y-85208841D01*
X120229954Y-84788588D01*
X119908703Y-84466777D01*
X119488754Y-84292399D01*
X119034041Y-84292002D01*
X118613788Y-84465646D01*
X118291977Y-84786897D01*
X118117599Y-85206846D01*
X118117202Y-85661559D01*
X117863202Y-85661559D01*
X117863598Y-85208841D01*
X117689954Y-84788588D01*
X117368703Y-84466777D01*
X116948754Y-84292399D01*
X116494041Y-84292002D01*
X116073788Y-84465646D01*
X115751977Y-84786897D01*
X115577599Y-85206846D01*
X115577202Y-85661559D01*
X115231000Y-85661559D01*
X115231000Y-83121559D01*
X115577202Y-83121559D01*
X115750846Y-83541812D01*
X116072097Y-83863623D01*
X116492046Y-84038001D01*
X116946759Y-84038398D01*
X117367012Y-83864754D01*
X117688823Y-83543503D01*
X117863201Y-83123554D01*
X117863202Y-83121559D01*
X118117202Y-83121559D01*
X118290846Y-83541812D01*
X118612097Y-83863623D01*
X119032046Y-84038001D01*
X119486759Y-84038398D01*
X119907012Y-83864754D01*
X120228823Y-83543503D01*
X120403201Y-83123554D01*
X120403598Y-82668841D01*
X120229954Y-82248588D01*
X119908703Y-81926777D01*
X119488754Y-81752399D01*
X119034041Y-81752002D01*
X118613788Y-81925646D01*
X118291977Y-82246897D01*
X118117599Y-82666846D01*
X118117202Y-83121559D01*
X117863202Y-83121559D01*
X117863598Y-82668841D01*
X117689954Y-82248588D01*
X117368703Y-81926777D01*
X116948754Y-81752399D01*
X116494041Y-81752002D01*
X116073788Y-81925646D01*
X115751977Y-82246897D01*
X115577599Y-82666846D01*
X115577202Y-83121559D01*
X115231000Y-83121559D01*
X115231000Y-80581559D01*
X115577202Y-80581559D01*
X115750846Y-81001812D01*
X116072097Y-81323623D01*
X116492046Y-81498001D01*
X116946759Y-81498398D01*
X117367012Y-81324754D01*
X117688823Y-81003503D01*
X117863201Y-80583554D01*
X117863202Y-80581559D01*
X118117202Y-80581559D01*
X118290846Y-81001812D01*
X118612097Y-81323623D01*
X119032046Y-81498001D01*
X119486759Y-81498398D01*
X119907012Y-81324754D01*
X120228823Y-81003503D01*
X120403201Y-80583554D01*
X120403598Y-80128841D01*
X120229954Y-79708588D01*
X119908703Y-79386777D01*
X119488754Y-79212399D01*
X119034041Y-79212002D01*
X118613788Y-79385646D01*
X118291977Y-79706897D01*
X118117599Y-80126846D01*
X118117202Y-80581559D01*
X117863202Y-80581559D01*
X117863598Y-80128841D01*
X117689954Y-79708588D01*
X117368703Y-79386777D01*
X116948754Y-79212399D01*
X116494041Y-79212002D01*
X116073788Y-79385646D01*
X115751977Y-79706897D01*
X115577599Y-80126846D01*
X115577202Y-80581559D01*
X115231000Y-80581559D01*
X115231000Y-78041559D01*
X115577202Y-78041559D01*
X115750846Y-78461812D01*
X116072097Y-78783623D01*
X116492046Y-78958001D01*
X116946759Y-78958398D01*
X117367012Y-78784754D01*
X117688823Y-78463503D01*
X117863201Y-78043554D01*
X117863202Y-78041559D01*
X118117202Y-78041559D01*
X118290846Y-78461812D01*
X118612097Y-78783623D01*
X119032046Y-78958001D01*
X119486759Y-78958398D01*
X119907012Y-78784754D01*
X120228823Y-78463503D01*
X120403201Y-78043554D01*
X120403598Y-77588841D01*
X120229954Y-77168588D01*
X119908703Y-76846777D01*
X119488754Y-76672399D01*
X119034041Y-76672002D01*
X118613788Y-76845646D01*
X118291977Y-77166897D01*
X118117599Y-77586846D01*
X118117202Y-78041559D01*
X117863202Y-78041559D01*
X117863598Y-77588841D01*
X117689954Y-77168588D01*
X117368703Y-76846777D01*
X116948754Y-76672399D01*
X116494041Y-76672002D01*
X116073788Y-76845646D01*
X115751977Y-77166897D01*
X115577599Y-77586846D01*
X115577202Y-78041559D01*
X115231000Y-78041559D01*
X115231000Y-75501559D01*
X115577202Y-75501559D01*
X115750846Y-75921812D01*
X116072097Y-76243623D01*
X116492046Y-76418001D01*
X116946759Y-76418398D01*
X117367012Y-76244754D01*
X117688823Y-75923503D01*
X117863201Y-75503554D01*
X117863202Y-75501559D01*
X118117202Y-75501559D01*
X118290846Y-75921812D01*
X118612097Y-76243623D01*
X119032046Y-76418001D01*
X119486759Y-76418398D01*
X119907012Y-76244754D01*
X120228823Y-75923503D01*
X120403201Y-75503554D01*
X120403598Y-75048841D01*
X120229954Y-74628588D01*
X119908703Y-74306777D01*
X119488754Y-74132399D01*
X119034041Y-74132002D01*
X118613788Y-74305646D01*
X118291977Y-74626897D01*
X118117599Y-75046846D01*
X118117202Y-75501559D01*
X117863202Y-75501559D01*
X117863598Y-75048841D01*
X117689954Y-74628588D01*
X117368703Y-74306777D01*
X116948754Y-74132399D01*
X116494041Y-74132002D01*
X116073788Y-74305646D01*
X115751977Y-74626897D01*
X115577599Y-75046846D01*
X115577202Y-75501559D01*
X115231000Y-75501559D01*
X115231000Y-72961559D01*
X115577202Y-72961559D01*
X115750846Y-73381812D01*
X116072097Y-73703623D01*
X116492046Y-73878001D01*
X116946759Y-73878398D01*
X117367012Y-73704754D01*
X117688823Y-73383503D01*
X117863201Y-72963554D01*
X117863598Y-72508841D01*
X117689954Y-72088588D01*
X117368703Y-71766777D01*
X116948754Y-71592399D01*
X116494041Y-71592002D01*
X116073788Y-71765646D01*
X115751977Y-72086897D01*
X115577599Y-72506846D01*
X115577202Y-72961559D01*
X115231000Y-72961559D01*
X115231000Y-70421559D01*
X115577202Y-70421559D01*
X115750846Y-70841812D01*
X116072097Y-71163623D01*
X116492046Y-71338001D01*
X116946759Y-71338398D01*
X117367012Y-71164754D01*
X117688823Y-70843503D01*
X117863201Y-70423554D01*
X117863202Y-70421559D01*
X118117202Y-70421559D01*
X118290846Y-70841812D01*
X118612097Y-71163623D01*
X119032046Y-71338001D01*
X119486759Y-71338398D01*
X119907012Y-71164754D01*
X120228823Y-70843503D01*
X120403201Y-70423554D01*
X120403598Y-69968841D01*
X120229954Y-69548588D01*
X119908703Y-69226777D01*
X119488754Y-69052399D01*
X119034041Y-69052002D01*
X118613788Y-69225646D01*
X118291977Y-69546897D01*
X118117599Y-69966846D01*
X118117202Y-70421559D01*
X117863202Y-70421559D01*
X117863598Y-69968841D01*
X117689954Y-69548588D01*
X117368703Y-69226777D01*
X116948754Y-69052399D01*
X116494041Y-69052002D01*
X116073788Y-69225646D01*
X115751977Y-69546897D01*
X115577599Y-69966846D01*
X115577202Y-70421559D01*
X115231000Y-70421559D01*
X115231000Y-67881559D01*
X115577202Y-67881559D01*
X115750846Y-68301812D01*
X116072097Y-68623623D01*
X116492046Y-68798001D01*
X116946759Y-68798398D01*
X117367012Y-68624754D01*
X117688823Y-68303503D01*
X117863201Y-67883554D01*
X117863202Y-67881559D01*
X118117202Y-67881559D01*
X118290846Y-68301812D01*
X118612097Y-68623623D01*
X119032046Y-68798001D01*
X119486759Y-68798398D01*
X119907012Y-68624754D01*
X120228823Y-68303503D01*
X120403201Y-67883554D01*
X120403598Y-67428841D01*
X120229954Y-67008588D01*
X119908703Y-66686777D01*
X119488754Y-66512399D01*
X119034041Y-66512002D01*
X118613788Y-66685646D01*
X118291977Y-67006897D01*
X118117599Y-67426846D01*
X118117202Y-67881559D01*
X117863202Y-67881559D01*
X117863598Y-67428841D01*
X117689954Y-67008588D01*
X117368703Y-66686777D01*
X116948754Y-66512399D01*
X116494041Y-66512002D01*
X116073788Y-66685646D01*
X115751977Y-67006897D01*
X115577599Y-67426846D01*
X115577202Y-67881559D01*
X115231000Y-67881559D01*
X115231000Y-65341559D01*
X115577202Y-65341559D01*
X115750846Y-65761812D01*
X116072097Y-66083623D01*
X116492046Y-66258001D01*
X116946759Y-66258398D01*
X117367012Y-66084754D01*
X117688823Y-65763503D01*
X117727151Y-65671200D01*
X118253406Y-65671200D01*
X118290846Y-65761812D01*
X118612097Y-66083623D01*
X119032046Y-66258001D01*
X119486759Y-66258398D01*
X119907012Y-66084754D01*
X120228823Y-65763503D01*
X120267151Y-65671200D01*
X121018898Y-65671200D01*
X122062500Y-66714803D01*
X122062500Y-73324632D01*
X121961711Y-73173790D01*
X121163910Y-72375990D01*
X120999103Y-72265869D01*
X120804700Y-72227200D01*
X120287227Y-72227200D01*
X120229954Y-72088588D01*
X119908703Y-71766777D01*
X119488754Y-71592399D01*
X119034041Y-71592002D01*
X118613788Y-71765646D01*
X118291977Y-72086897D01*
X118117599Y-72506846D01*
X118117202Y-72961559D01*
X118290846Y-73381812D01*
X118612097Y-73703623D01*
X119032046Y-73878001D01*
X119486759Y-73878398D01*
X119907012Y-73704754D01*
X120228823Y-73383503D01*
X120287082Y-73243200D01*
X120594280Y-73243200D01*
X121094500Y-73743421D01*
X121094500Y-111535533D01*
X120935364Y-111694391D01*
X120815237Y-111983689D01*
X120814964Y-112296936D01*
X120934586Y-112586444D01*
X121155891Y-112808136D01*
X121445189Y-112928263D01*
X121758436Y-112928536D01*
X122047944Y-112808914D01*
X122269636Y-112587609D01*
X122389763Y-112298311D01*
X122389874Y-112169936D01*
X131800464Y-112169936D01*
X131920086Y-112459444D01*
X132141391Y-112681136D01*
X132430689Y-112801263D01*
X132657040Y-112801460D01*
X134641790Y-114786210D01*
X134806596Y-114896331D01*
X134838850Y-114902746D01*
X135001000Y-114935000D01*
X160254080Y-114935000D01*
X163788290Y-118469211D01*
X163788293Y-118469213D01*
X163837345Y-118518265D01*
X163837202Y-118681559D01*
X164010846Y-119101812D01*
X164332097Y-119423623D01*
X164752046Y-119598001D01*
X165206759Y-119598398D01*
X165627012Y-119424754D01*
X165948823Y-119103503D01*
X166123201Y-118683554D01*
X166123598Y-118228841D01*
X165949954Y-117808588D01*
X165870504Y-117729000D01*
X166075780Y-117729000D01*
X166435114Y-118088334D01*
X166377599Y-118226846D01*
X166377202Y-118681559D01*
X166550846Y-119101812D01*
X166872097Y-119423623D01*
X167292046Y-119598001D01*
X167746759Y-119598398D01*
X168167012Y-119424754D01*
X168488823Y-119103503D01*
X168663201Y-118683554D01*
X168663598Y-118228841D01*
X168489954Y-117808588D01*
X168168703Y-117486777D01*
X167748754Y-117312399D01*
X167294041Y-117312002D01*
X167153636Y-117370016D01*
X166645410Y-116861790D01*
X166480603Y-116751669D01*
X166286200Y-116713000D01*
X165799065Y-116713000D01*
X165948823Y-116563503D01*
X166123201Y-116143554D01*
X166123598Y-115688841D01*
X165949954Y-115268588D01*
X165870504Y-115189000D01*
X166075780Y-115189000D01*
X166435114Y-115548334D01*
X166377599Y-115686846D01*
X166377202Y-116141559D01*
X166550846Y-116561812D01*
X166872097Y-116883623D01*
X167292046Y-117058001D01*
X167746759Y-117058398D01*
X168167012Y-116884754D01*
X168488823Y-116563503D01*
X168663201Y-116143554D01*
X168663598Y-115688841D01*
X168489954Y-115268588D01*
X168168703Y-114946777D01*
X167748754Y-114772399D01*
X167294041Y-114772002D01*
X167153636Y-114830016D01*
X166645410Y-114321790D01*
X166480603Y-114211669D01*
X166286200Y-114173000D01*
X165799065Y-114173000D01*
X165948823Y-114023503D01*
X166123201Y-113603554D01*
X166123598Y-113148841D01*
X165949954Y-112728588D01*
X165933894Y-112712500D01*
X166139280Y-112712500D01*
X166435114Y-113008334D01*
X166377599Y-113146846D01*
X166377202Y-113601559D01*
X166550846Y-114021812D01*
X166872097Y-114343623D01*
X167292046Y-114518001D01*
X167746759Y-114518398D01*
X168167012Y-114344754D01*
X168488823Y-114023503D01*
X168663201Y-113603554D01*
X168663598Y-113148841D01*
X168489954Y-112728588D01*
X168168703Y-112406777D01*
X167748754Y-112232399D01*
X167294041Y-112232002D01*
X167153636Y-112290016D01*
X166708910Y-111845290D01*
X166544103Y-111735169D01*
X166349700Y-111696500D01*
X165735455Y-111696500D01*
X165948823Y-111483503D01*
X166123201Y-111063554D01*
X166123598Y-110608841D01*
X165949954Y-110188588D01*
X165933894Y-110172500D01*
X166566399Y-110172500D01*
X166551977Y-110186897D01*
X166377599Y-110606846D01*
X166377202Y-111061559D01*
X166550846Y-111481812D01*
X166872097Y-111803623D01*
X167292046Y-111978001D01*
X167746759Y-111978398D01*
X168167012Y-111804754D01*
X168488823Y-111483503D01*
X168663201Y-111063554D01*
X168663598Y-110608841D01*
X168489954Y-110188588D01*
X168168703Y-109866777D01*
X167861731Y-109739311D01*
X167560656Y-109438236D01*
X167746759Y-109438398D01*
X168167012Y-109264754D01*
X168488823Y-108943503D01*
X168663201Y-108523554D01*
X168663598Y-108068841D01*
X168489954Y-107648588D01*
X168168703Y-107326777D01*
X167748754Y-107152399D01*
X167294041Y-107152002D01*
X166873788Y-107325646D01*
X166551977Y-107646897D01*
X166377599Y-108066846D01*
X166377202Y-108521559D01*
X166550846Y-108941812D01*
X166765160Y-109156500D01*
X165735455Y-109156500D01*
X165948823Y-108943503D01*
X166123201Y-108523554D01*
X166123598Y-108068841D01*
X165949954Y-107648588D01*
X165628703Y-107326777D01*
X165208754Y-107152399D01*
X164754041Y-107152002D01*
X164333788Y-107325646D01*
X164011977Y-107646897D01*
X163837599Y-108066846D01*
X163837202Y-108521559D01*
X164010846Y-108941812D01*
X164317313Y-109248813D01*
X164232789Y-109305290D01*
X163429080Y-110109000D01*
X154047042Y-110109000D01*
X154020414Y-110044556D01*
X153799109Y-109822864D01*
X153509811Y-109702737D01*
X153196564Y-109702464D01*
X152907056Y-109822086D01*
X152685364Y-110043391D01*
X152565237Y-110332689D01*
X152565207Y-110367025D01*
X152529109Y-110330864D01*
X152239811Y-110210737D01*
X151926564Y-110210464D01*
X151637056Y-110330086D01*
X151415364Y-110551391D01*
X151295237Y-110840689D01*
X151294964Y-111153936D01*
X151335483Y-111252000D01*
X146900900Y-111252000D01*
X146901036Y-111096064D01*
X146781414Y-110806556D01*
X146560109Y-110584864D01*
X146270811Y-110464737D01*
X145957564Y-110464464D01*
X145668056Y-110584086D01*
X145446364Y-110805391D01*
X145326237Y-111094689D01*
X145326207Y-111129025D01*
X145290109Y-111092864D01*
X145000811Y-110972737D01*
X144687564Y-110972464D01*
X144398056Y-111092086D01*
X144176364Y-111313391D01*
X144056237Y-111602689D01*
X144055964Y-111915936D01*
X144175586Y-112205444D01*
X144238033Y-112268000D01*
X142450420Y-112268000D01*
X141820840Y-111638420D01*
X141821036Y-111413564D01*
X141701414Y-111124056D01*
X141480109Y-110902364D01*
X141190811Y-110782237D01*
X140877564Y-110781964D01*
X140588056Y-110901586D01*
X140366364Y-111122891D01*
X140347921Y-111167306D01*
X140273609Y-111092864D01*
X139984311Y-110972737D01*
X139671064Y-110972464D01*
X139381556Y-111092086D01*
X139159864Y-111313391D01*
X139039737Y-111602689D01*
X139039464Y-111915936D01*
X139159086Y-112205444D01*
X139380391Y-112427136D01*
X139669689Y-112547263D01*
X139896040Y-112547460D01*
X140696080Y-113347500D01*
X135719421Y-113347500D01*
X134645340Y-112273420D01*
X134645536Y-112048564D01*
X134525914Y-111759056D01*
X134304609Y-111537364D01*
X134015311Y-111417237D01*
X133702064Y-111416964D01*
X133412556Y-111536586D01*
X133292304Y-111656628D01*
X133255914Y-111568556D01*
X133034609Y-111346864D01*
X132745311Y-111226737D01*
X132432064Y-111226464D01*
X132142556Y-111346086D01*
X131920864Y-111567391D01*
X131800737Y-111856689D01*
X131800464Y-112169936D01*
X122389874Y-112169936D01*
X122390036Y-111985064D01*
X122270414Y-111695556D01*
X122110500Y-111535362D01*
X122110500Y-110143138D01*
X122171891Y-110204636D01*
X122461189Y-110324763D01*
X122774436Y-110325036D01*
X123063944Y-110205414D01*
X123285636Y-109984109D01*
X123405763Y-109694811D01*
X123406036Y-109381564D01*
X123286414Y-109092056D01*
X123174500Y-108979946D01*
X123174500Y-105981559D01*
X163837202Y-105981559D01*
X164010846Y-106401812D01*
X164332097Y-106723623D01*
X164752046Y-106898001D01*
X165206759Y-106898398D01*
X165627012Y-106724754D01*
X165948823Y-106403503D01*
X166123201Y-105983554D01*
X166123202Y-105981559D01*
X166377202Y-105981559D01*
X166550846Y-106401812D01*
X166872097Y-106723623D01*
X167292046Y-106898001D01*
X167746759Y-106898398D01*
X168167012Y-106724754D01*
X168488823Y-106403503D01*
X168663201Y-105983554D01*
X168663598Y-105528841D01*
X168489954Y-105108588D01*
X168168703Y-104786777D01*
X167748754Y-104612399D01*
X167294041Y-104612002D01*
X166873788Y-104785646D01*
X166551977Y-105106897D01*
X166377599Y-105526846D01*
X166377202Y-105981559D01*
X166123202Y-105981559D01*
X166123598Y-105528841D01*
X165949954Y-105108588D01*
X165628703Y-104786777D01*
X165208754Y-104612399D01*
X164754041Y-104612002D01*
X164333788Y-104785646D01*
X164011977Y-105106897D01*
X163837599Y-105526846D01*
X163837202Y-105981559D01*
X123174500Y-105981559D01*
X123174500Y-103441559D01*
X163837202Y-103441559D01*
X164010846Y-103861812D01*
X164332097Y-104183623D01*
X164752046Y-104358001D01*
X165206759Y-104358398D01*
X165627012Y-104184754D01*
X165948823Y-103863503D01*
X166123201Y-103443554D01*
X166123202Y-103441559D01*
X166377202Y-103441559D01*
X166550846Y-103861812D01*
X166872097Y-104183623D01*
X167292046Y-104358001D01*
X167746759Y-104358398D01*
X168167012Y-104184754D01*
X168488823Y-103863503D01*
X168663201Y-103443554D01*
X168663598Y-102988841D01*
X168489954Y-102568588D01*
X168168703Y-102246777D01*
X167748754Y-102072399D01*
X167294041Y-102072002D01*
X166873788Y-102245646D01*
X166551977Y-102566897D01*
X166377599Y-102986846D01*
X166377202Y-103441559D01*
X166123202Y-103441559D01*
X166123598Y-102988841D01*
X165949954Y-102568588D01*
X165628703Y-102246777D01*
X165208754Y-102072399D01*
X164754041Y-102072002D01*
X164333788Y-102245646D01*
X164011977Y-102566897D01*
X163837599Y-102986846D01*
X163837202Y-103441559D01*
X123174500Y-103441559D01*
X123174500Y-100901559D01*
X163837202Y-100901559D01*
X164010846Y-101321812D01*
X164332097Y-101643623D01*
X164752046Y-101818001D01*
X165206759Y-101818398D01*
X165627012Y-101644754D01*
X165948823Y-101323503D01*
X166123201Y-100903554D01*
X166123202Y-100901559D01*
X166377202Y-100901559D01*
X166550846Y-101321812D01*
X166872097Y-101643623D01*
X167292046Y-101818001D01*
X167746759Y-101818398D01*
X168167012Y-101644754D01*
X168488823Y-101323503D01*
X168663201Y-100903554D01*
X168663598Y-100448841D01*
X168489954Y-100028588D01*
X168168703Y-99706777D01*
X167748754Y-99532399D01*
X167294041Y-99532002D01*
X166873788Y-99705646D01*
X166551977Y-100026897D01*
X166377599Y-100446846D01*
X166377202Y-100901559D01*
X166123202Y-100901559D01*
X166123598Y-100448841D01*
X165949954Y-100028588D01*
X165628703Y-99706777D01*
X165208754Y-99532399D01*
X164754041Y-99532002D01*
X164333788Y-99705646D01*
X164011977Y-100026897D01*
X163837599Y-100446846D01*
X163837202Y-100901559D01*
X123174500Y-100901559D01*
X123174500Y-98361559D01*
X163837202Y-98361559D01*
X164010846Y-98781812D01*
X164332097Y-99103623D01*
X164752046Y-99278001D01*
X165206759Y-99278398D01*
X165627012Y-99104754D01*
X165948823Y-98783503D01*
X166123201Y-98363554D01*
X166123202Y-98361559D01*
X166377202Y-98361559D01*
X166550846Y-98781812D01*
X166872097Y-99103623D01*
X167292046Y-99278001D01*
X167746759Y-99278398D01*
X168167012Y-99104754D01*
X168488823Y-98783503D01*
X168663201Y-98363554D01*
X168663598Y-97908841D01*
X168489954Y-97488588D01*
X168168703Y-97166777D01*
X167748754Y-96992399D01*
X167294041Y-96992002D01*
X166873788Y-97165646D01*
X166551977Y-97486897D01*
X166377599Y-97906846D01*
X166377202Y-98361559D01*
X166123202Y-98361559D01*
X166123598Y-97908841D01*
X165949954Y-97488588D01*
X165628703Y-97166777D01*
X165208754Y-96992399D01*
X164754041Y-96992002D01*
X164333788Y-97165646D01*
X164011977Y-97486897D01*
X163837599Y-97906846D01*
X163837202Y-98361559D01*
X123174500Y-98361559D01*
X123174500Y-95821559D01*
X163837202Y-95821559D01*
X164010846Y-96241812D01*
X164332097Y-96563623D01*
X164752046Y-96738001D01*
X165206759Y-96738398D01*
X165627012Y-96564754D01*
X165948823Y-96243503D01*
X166123201Y-95823554D01*
X166123202Y-95821559D01*
X166377202Y-95821559D01*
X166550846Y-96241812D01*
X166872097Y-96563623D01*
X167292046Y-96738001D01*
X167746759Y-96738398D01*
X168167012Y-96564754D01*
X168488823Y-96243503D01*
X168663201Y-95823554D01*
X168663598Y-95368841D01*
X168489954Y-94948588D01*
X168168703Y-94626777D01*
X167748754Y-94452399D01*
X167294041Y-94452002D01*
X166873788Y-94625646D01*
X166551977Y-94946897D01*
X166377599Y-95366846D01*
X166377202Y-95821559D01*
X166123202Y-95821559D01*
X166123598Y-95368841D01*
X165949954Y-94948588D01*
X165628703Y-94626777D01*
X165208754Y-94452399D01*
X164754041Y-94452002D01*
X164333788Y-94625646D01*
X164011977Y-94946897D01*
X163837599Y-95366846D01*
X163837202Y-95821559D01*
X123174500Y-95821559D01*
X123174500Y-93281559D01*
X163837202Y-93281559D01*
X164010846Y-93701812D01*
X164332097Y-94023623D01*
X164752046Y-94198001D01*
X165206759Y-94198398D01*
X165627012Y-94024754D01*
X165948823Y-93703503D01*
X166123201Y-93283554D01*
X166123202Y-93281559D01*
X166377202Y-93281559D01*
X166550846Y-93701812D01*
X166872097Y-94023623D01*
X167292046Y-94198001D01*
X167746759Y-94198398D01*
X168167012Y-94024754D01*
X168488823Y-93703503D01*
X168663201Y-93283554D01*
X168663598Y-92828841D01*
X168489954Y-92408588D01*
X168168703Y-92086777D01*
X167748754Y-91912399D01*
X167294041Y-91912002D01*
X166873788Y-92085646D01*
X166551977Y-92406897D01*
X166377599Y-92826846D01*
X166377202Y-93281559D01*
X166123202Y-93281559D01*
X166123598Y-92828841D01*
X165949954Y-92408588D01*
X165628703Y-92086777D01*
X165208754Y-91912399D01*
X164754041Y-91912002D01*
X164333788Y-92085646D01*
X164011977Y-92406897D01*
X163837599Y-92826846D01*
X163837202Y-93281559D01*
X123174500Y-93281559D01*
X123174500Y-91172051D01*
X123285636Y-91061109D01*
X123405763Y-90771811D01*
X123405789Y-90741559D01*
X163837202Y-90741559D01*
X164010846Y-91161812D01*
X164332097Y-91483623D01*
X164752046Y-91658001D01*
X165206759Y-91658398D01*
X165627012Y-91484754D01*
X165948823Y-91163503D01*
X166123201Y-90743554D01*
X166123202Y-90741559D01*
X166377202Y-90741559D01*
X166550846Y-91161812D01*
X166872097Y-91483623D01*
X167292046Y-91658001D01*
X167746759Y-91658398D01*
X168167012Y-91484754D01*
X168488823Y-91163503D01*
X168663201Y-90743554D01*
X168663598Y-90288841D01*
X168489954Y-89868588D01*
X168168703Y-89546777D01*
X167748754Y-89372399D01*
X167294041Y-89372002D01*
X166873788Y-89545646D01*
X166551977Y-89866897D01*
X166377599Y-90286846D01*
X166377202Y-90741559D01*
X166123202Y-90741559D01*
X166123598Y-90288841D01*
X165949954Y-89868588D01*
X165628703Y-89546777D01*
X165208754Y-89372399D01*
X164754041Y-89372002D01*
X164333788Y-89545646D01*
X164011977Y-89866897D01*
X163837599Y-90286846D01*
X163837202Y-90741559D01*
X123405789Y-90741559D01*
X123406036Y-90458564D01*
X123286414Y-90169056D01*
X123174500Y-90056946D01*
X123174500Y-88201559D01*
X163837202Y-88201559D01*
X164010846Y-88621812D01*
X164332097Y-88943623D01*
X164752046Y-89118001D01*
X165206759Y-89118398D01*
X165627012Y-88944754D01*
X165948823Y-88623503D01*
X166123201Y-88203554D01*
X166123202Y-88201559D01*
X166377202Y-88201559D01*
X166550846Y-88621812D01*
X166872097Y-88943623D01*
X167292046Y-89118001D01*
X167746759Y-89118398D01*
X168167012Y-88944754D01*
X168488823Y-88623503D01*
X168663201Y-88203554D01*
X168663598Y-87748841D01*
X168489954Y-87328588D01*
X168168703Y-87006777D01*
X167748754Y-86832399D01*
X167294041Y-86832002D01*
X166873788Y-87005646D01*
X166551977Y-87326897D01*
X166377599Y-87746846D01*
X166377202Y-88201559D01*
X166123202Y-88201559D01*
X166123598Y-87748841D01*
X165949954Y-87328588D01*
X165628703Y-87006777D01*
X165208754Y-86832399D01*
X164754041Y-86832002D01*
X164333788Y-87005646D01*
X164011977Y-87326897D01*
X163837599Y-87746846D01*
X163837202Y-88201559D01*
X123174500Y-88201559D01*
X123174500Y-85661559D01*
X163837202Y-85661559D01*
X164010846Y-86081812D01*
X164332097Y-86403623D01*
X164752046Y-86578001D01*
X165206759Y-86578398D01*
X165627012Y-86404754D01*
X165948823Y-86083503D01*
X166123201Y-85663554D01*
X166123202Y-85661559D01*
X166377202Y-85661559D01*
X166550846Y-86081812D01*
X166872097Y-86403623D01*
X167292046Y-86578001D01*
X167746759Y-86578398D01*
X168167012Y-86404754D01*
X168488823Y-86083503D01*
X168663201Y-85663554D01*
X168663598Y-85208841D01*
X168489954Y-84788588D01*
X168168703Y-84466777D01*
X167748754Y-84292399D01*
X167294041Y-84292002D01*
X166873788Y-84465646D01*
X166551977Y-84786897D01*
X166377599Y-85206846D01*
X166377202Y-85661559D01*
X166123202Y-85661559D01*
X166123598Y-85208841D01*
X165949954Y-84788588D01*
X165628703Y-84466777D01*
X165208754Y-84292399D01*
X164754041Y-84292002D01*
X164333788Y-84465646D01*
X164011977Y-84786897D01*
X163837599Y-85206846D01*
X163837202Y-85661559D01*
X123174500Y-85661559D01*
X123174500Y-83121559D01*
X163837202Y-83121559D01*
X164010846Y-83541812D01*
X164332097Y-83863623D01*
X164752046Y-84038001D01*
X165206759Y-84038398D01*
X165627012Y-83864754D01*
X165948823Y-83543503D01*
X166123201Y-83123554D01*
X166123202Y-83121559D01*
X166377202Y-83121559D01*
X166550846Y-83541812D01*
X166872097Y-83863623D01*
X167292046Y-84038001D01*
X167746759Y-84038398D01*
X168167012Y-83864754D01*
X168488823Y-83543503D01*
X168663201Y-83123554D01*
X168663598Y-82668841D01*
X168489954Y-82248588D01*
X168168703Y-81926777D01*
X167748754Y-81752399D01*
X167294041Y-81752002D01*
X166873788Y-81925646D01*
X166551977Y-82246897D01*
X166377599Y-82666846D01*
X166377202Y-83121559D01*
X166123202Y-83121559D01*
X166123598Y-82668841D01*
X165949954Y-82248588D01*
X165628703Y-81926777D01*
X165208754Y-81752399D01*
X164754041Y-81752002D01*
X164333788Y-81925646D01*
X164011977Y-82246897D01*
X163837599Y-82666846D01*
X163837202Y-83121559D01*
X123174500Y-83121559D01*
X123174500Y-80581559D01*
X163837202Y-80581559D01*
X164010846Y-81001812D01*
X164332097Y-81323623D01*
X164752046Y-81498001D01*
X165206759Y-81498398D01*
X165627012Y-81324754D01*
X165948823Y-81003503D01*
X166123201Y-80583554D01*
X166123202Y-80581559D01*
X166377202Y-80581559D01*
X166550846Y-81001812D01*
X166872097Y-81323623D01*
X167292046Y-81498001D01*
X167746759Y-81498398D01*
X168167012Y-81324754D01*
X168488823Y-81003503D01*
X168663201Y-80583554D01*
X168663598Y-80128841D01*
X168489954Y-79708588D01*
X168168703Y-79386777D01*
X167748754Y-79212399D01*
X167294041Y-79212002D01*
X166873788Y-79385646D01*
X166551977Y-79706897D01*
X166377599Y-80126846D01*
X166377202Y-80581559D01*
X166123202Y-80581559D01*
X166123598Y-80128841D01*
X165949954Y-79708588D01*
X165628703Y-79386777D01*
X165208754Y-79212399D01*
X164754041Y-79212002D01*
X164333788Y-79385646D01*
X164011977Y-79706897D01*
X163837599Y-80126846D01*
X163837202Y-80581559D01*
X123174500Y-80581559D01*
X123174500Y-78041559D01*
X163837202Y-78041559D01*
X164010846Y-78461812D01*
X164332097Y-78783623D01*
X164752046Y-78958001D01*
X165206759Y-78958398D01*
X165627012Y-78784754D01*
X165948823Y-78463503D01*
X166123201Y-78043554D01*
X166123202Y-78041559D01*
X166377202Y-78041559D01*
X166550846Y-78461812D01*
X166872097Y-78783623D01*
X167292046Y-78958001D01*
X167746759Y-78958398D01*
X168167012Y-78784754D01*
X168488823Y-78463503D01*
X168663201Y-78043554D01*
X168663598Y-77588841D01*
X168489954Y-77168588D01*
X168168703Y-76846777D01*
X167748754Y-76672399D01*
X167294041Y-76672002D01*
X166873788Y-76845646D01*
X166551977Y-77166897D01*
X166377599Y-77586846D01*
X166377202Y-78041559D01*
X166123202Y-78041559D01*
X166123598Y-77588841D01*
X165949954Y-77168588D01*
X165628703Y-76846777D01*
X165208754Y-76672399D01*
X164754041Y-76672002D01*
X164333788Y-76845646D01*
X164011977Y-77166897D01*
X163837599Y-77586846D01*
X163837202Y-78041559D01*
X123174500Y-78041559D01*
X123174500Y-75501559D01*
X163837202Y-75501559D01*
X164010846Y-75921812D01*
X164332097Y-76243623D01*
X164752046Y-76418001D01*
X165206759Y-76418398D01*
X165627012Y-76244754D01*
X165948823Y-75923503D01*
X166123201Y-75503554D01*
X166123202Y-75501559D01*
X166377202Y-75501559D01*
X166550846Y-75921812D01*
X166872097Y-76243623D01*
X167292046Y-76418001D01*
X167746759Y-76418398D01*
X168167012Y-76244754D01*
X168488823Y-75923503D01*
X168663201Y-75503554D01*
X168663598Y-75048841D01*
X168489954Y-74628588D01*
X168168703Y-74306777D01*
X167748754Y-74132399D01*
X167294041Y-74132002D01*
X166873788Y-74305646D01*
X166551977Y-74626897D01*
X166377599Y-75046846D01*
X166377202Y-75501559D01*
X166123202Y-75501559D01*
X166123598Y-75048841D01*
X165949954Y-74628588D01*
X165628703Y-74306777D01*
X165208754Y-74132399D01*
X164754041Y-74132002D01*
X164333788Y-74305646D01*
X164011977Y-74626897D01*
X163837599Y-75046846D01*
X163837202Y-75501559D01*
X123174500Y-75501559D01*
X123174500Y-72961559D01*
X163837202Y-72961559D01*
X164010846Y-73381812D01*
X164332097Y-73703623D01*
X164752046Y-73878001D01*
X165206759Y-73878398D01*
X165627012Y-73704754D01*
X165948823Y-73383503D01*
X166123201Y-72963554D01*
X166123202Y-72961559D01*
X166377202Y-72961559D01*
X166550846Y-73381812D01*
X166872097Y-73703623D01*
X167292046Y-73878001D01*
X167746759Y-73878398D01*
X168167012Y-73704754D01*
X168488823Y-73383503D01*
X168663201Y-72963554D01*
X168663598Y-72508841D01*
X168489954Y-72088588D01*
X168168703Y-71766777D01*
X167748754Y-71592399D01*
X167294041Y-71592002D01*
X166873788Y-71765646D01*
X166551977Y-72086897D01*
X166377599Y-72506846D01*
X166377202Y-72961559D01*
X166123202Y-72961559D01*
X166123598Y-72508841D01*
X165949954Y-72088588D01*
X165628703Y-71766777D01*
X165208754Y-71592399D01*
X164754041Y-71592002D01*
X164333788Y-71765646D01*
X164011977Y-72086897D01*
X163837599Y-72506846D01*
X163837202Y-72961559D01*
X123174500Y-72961559D01*
X123174500Y-70421559D01*
X163837202Y-70421559D01*
X164010846Y-70841812D01*
X164332097Y-71163623D01*
X164752046Y-71338001D01*
X165206759Y-71338398D01*
X165627012Y-71164754D01*
X165948823Y-70843503D01*
X166123201Y-70423554D01*
X166123202Y-70421559D01*
X166377202Y-70421559D01*
X166550846Y-70841812D01*
X166872097Y-71163623D01*
X167292046Y-71338001D01*
X167746759Y-71338398D01*
X168167012Y-71164754D01*
X168488823Y-70843503D01*
X168663201Y-70423554D01*
X168663598Y-69968841D01*
X168489954Y-69548588D01*
X168168703Y-69226777D01*
X167748754Y-69052399D01*
X167294041Y-69052002D01*
X166873788Y-69225646D01*
X166551977Y-69546897D01*
X166377599Y-69966846D01*
X166377202Y-70421559D01*
X166123202Y-70421559D01*
X166123598Y-69968841D01*
X165949954Y-69548588D01*
X165628703Y-69226777D01*
X165208754Y-69052399D01*
X164754041Y-69052002D01*
X164333788Y-69225646D01*
X164011977Y-69546897D01*
X163837599Y-69966846D01*
X163837202Y-70421559D01*
X123174500Y-70421559D01*
X123174500Y-67881559D01*
X163837202Y-67881559D01*
X164010846Y-68301812D01*
X164332097Y-68623623D01*
X164752046Y-68798001D01*
X165206759Y-68798398D01*
X165627012Y-68624754D01*
X165948823Y-68303503D01*
X166123201Y-67883554D01*
X166123202Y-67881559D01*
X166377202Y-67881559D01*
X166550846Y-68301812D01*
X166872097Y-68623623D01*
X167292046Y-68798001D01*
X167746759Y-68798398D01*
X168167012Y-68624754D01*
X168488823Y-68303503D01*
X168663201Y-67883554D01*
X168663598Y-67428841D01*
X168489954Y-67008588D01*
X168168703Y-66686777D01*
X167748754Y-66512399D01*
X167294041Y-66512002D01*
X166873788Y-66685646D01*
X166551977Y-67006897D01*
X166377599Y-67426846D01*
X166377202Y-67881559D01*
X166123202Y-67881559D01*
X166123598Y-67428841D01*
X165949954Y-67008588D01*
X165628703Y-66686777D01*
X165208754Y-66512399D01*
X164754041Y-66512002D01*
X164333788Y-66685646D01*
X164011977Y-67006897D01*
X163837599Y-67426846D01*
X163837202Y-67881559D01*
X123174500Y-67881559D01*
X123174500Y-66484500D01*
X123132177Y-66271728D01*
X123123005Y-66258001D01*
X123011652Y-66091349D01*
X122261862Y-65341559D01*
X163837202Y-65341559D01*
X164010846Y-65761812D01*
X164332097Y-66083623D01*
X164752046Y-66258001D01*
X165206759Y-66258398D01*
X165627012Y-66084754D01*
X165948823Y-65763503D01*
X166123201Y-65343554D01*
X166123202Y-65341559D01*
X166377202Y-65341559D01*
X166550846Y-65761812D01*
X166872097Y-66083623D01*
X167292046Y-66258001D01*
X167746759Y-66258398D01*
X168167012Y-66084754D01*
X168488823Y-65763503D01*
X168663201Y-65343554D01*
X168663598Y-64888841D01*
X168489954Y-64468588D01*
X168168703Y-64146777D01*
X167748754Y-63972399D01*
X167294041Y-63972002D01*
X166873788Y-64145646D01*
X166551977Y-64466897D01*
X166377599Y-64886846D01*
X166377202Y-65341559D01*
X166123202Y-65341559D01*
X166123598Y-64888841D01*
X165949954Y-64468588D01*
X165628703Y-64146777D01*
X165208754Y-63972399D01*
X164754041Y-63972002D01*
X164333788Y-64145646D01*
X164011977Y-64466897D01*
X163837599Y-64886846D01*
X163837202Y-65341559D01*
X122261862Y-65341559D01*
X121642351Y-64722049D01*
X121461972Y-64601523D01*
X121249200Y-64559200D01*
X120267394Y-64559200D01*
X120229954Y-64468588D01*
X119908703Y-64146777D01*
X119488754Y-63972399D01*
X119294740Y-63972230D01*
X119607768Y-63956562D01*
X119991543Y-63797597D01*
X120061008Y-63555413D01*
X119260400Y-62754805D01*
X118459792Y-63555413D01*
X118529257Y-63797597D01*
X119026658Y-63975052D01*
X118613788Y-64145646D01*
X118291977Y-64466897D01*
X118253649Y-64559200D01*
X117727394Y-64559200D01*
X117689954Y-64468588D01*
X117368703Y-64146777D01*
X116948754Y-63972399D01*
X116522924Y-63972027D01*
X117065848Y-63944430D01*
X117444323Y-63787660D01*
X117512312Y-63546717D01*
X116720400Y-62754805D01*
X115928488Y-63546717D01*
X115996477Y-63787660D01*
X116514500Y-63972020D01*
X116494041Y-63972002D01*
X116073788Y-64145646D01*
X115751977Y-64466897D01*
X115577599Y-64886846D01*
X115577202Y-65341559D01*
X115231000Y-65341559D01*
X115231000Y-62370371D01*
X115323199Y-62370371D01*
X115351170Y-62920648D01*
X115507940Y-63299123D01*
X115748883Y-63367112D01*
X116540795Y-62575200D01*
X116900005Y-62575200D01*
X117691917Y-63367112D01*
X117932860Y-63299123D01*
X117980068Y-63166476D01*
X118038003Y-63306343D01*
X118280187Y-63375808D01*
X119080795Y-62575200D01*
X119440005Y-62575200D01*
X120240613Y-63375808D01*
X120482797Y-63306343D01*
X120669544Y-62782898D01*
X120641762Y-62227832D01*
X120482797Y-61844057D01*
X120240613Y-61774592D01*
X119440005Y-62575200D01*
X119080795Y-62575200D01*
X118280187Y-61774592D01*
X118038003Y-61844057D01*
X117987965Y-61984312D01*
X117932860Y-61851277D01*
X117691917Y-61783288D01*
X116900005Y-62575200D01*
X116540795Y-62575200D01*
X115748883Y-61783288D01*
X115507940Y-61851277D01*
X115323199Y-62370371D01*
X115231000Y-62370371D01*
X115231000Y-61603683D01*
X115928488Y-61603683D01*
X116720400Y-62395595D01*
X117512312Y-61603683D01*
X117509859Y-61594987D01*
X118459792Y-61594987D01*
X119260400Y-62395595D01*
X120061008Y-61594987D01*
X119991543Y-61352803D01*
X119468098Y-61166056D01*
X118913032Y-61193838D01*
X118529257Y-61352803D01*
X118459792Y-61594987D01*
X117509859Y-61594987D01*
X117444323Y-61362740D01*
X116925229Y-61177999D01*
X116374952Y-61205970D01*
X115996477Y-61362740D01*
X115928488Y-61603683D01*
X115231000Y-61603683D01*
X115231000Y-59431000D01*
X128318119Y-59431000D01*
X130305136Y-63972753D01*
X130305136Y-63972753D01*
G37*
X130305136Y-63972753D02*
X130350841Y-64038320D01*
X130395237Y-64104763D01*
X130398831Y-64107164D01*
X130401303Y-64110711D01*
X130468622Y-64153797D01*
X130535063Y-64198192D01*
X130539302Y-64199035D01*
X130542944Y-64201366D01*
X130621644Y-64215414D01*
X130700000Y-64231000D01*
X153500000Y-64231000D01*
X153578380Y-64215409D01*
X153657056Y-64201366D01*
X153660698Y-64199035D01*
X153664937Y-64198192D01*
X153731378Y-64153797D01*
X153798697Y-64110711D01*
X153801169Y-64107164D01*
X153804763Y-64104763D01*
X153849159Y-64038320D01*
X153894864Y-63972753D01*
X154408300Y-62799183D01*
X163849204Y-62799183D01*
X164021025Y-63215023D01*
X164338903Y-63533456D01*
X164754443Y-63706004D01*
X165204383Y-63706396D01*
X165620223Y-63534575D01*
X165938656Y-63216697D01*
X166111037Y-62801559D01*
X166377202Y-62801559D01*
X166550846Y-63221812D01*
X166872097Y-63543623D01*
X167292046Y-63718001D01*
X167746759Y-63718398D01*
X168167012Y-63544754D01*
X168488823Y-63223503D01*
X168663201Y-62803554D01*
X168663598Y-62348841D01*
X168489954Y-61928588D01*
X168168703Y-61606777D01*
X167748754Y-61432399D01*
X167294041Y-61432002D01*
X166873788Y-61605646D01*
X166551977Y-61926897D01*
X166377599Y-62346846D01*
X166377202Y-62801559D01*
X166111037Y-62801559D01*
X166111204Y-62801157D01*
X166111596Y-62351217D01*
X165939775Y-61935377D01*
X165621897Y-61616944D01*
X165206357Y-61444396D01*
X164756417Y-61444004D01*
X164340577Y-61615825D01*
X164022144Y-61933703D01*
X163849596Y-62349243D01*
X163849204Y-62799183D01*
X154408300Y-62799183D01*
X155881881Y-59431000D01*
X168969000Y-59431000D01*
X168969000Y-134569000D01*
X115231000Y-134569000D01*
X115231000Y-129250940D01*
X117049665Y-129250940D01*
X117258853Y-129611789D01*
X118196150Y-129989324D01*
X119206577Y-129979433D01*
X120094147Y-129611789D01*
X120303335Y-129250940D01*
X164039665Y-129250940D01*
X164248853Y-129611789D01*
X165186150Y-129989324D01*
X166196577Y-129979433D01*
X167084147Y-129611789D01*
X167293335Y-129250940D01*
X165666500Y-127624105D01*
X164039665Y-129250940D01*
X120303335Y-129250940D01*
X118676500Y-127624105D01*
X117049665Y-129250940D01*
X115231000Y-129250940D01*
X115231000Y-126964150D01*
X116131676Y-126964150D01*
X116141567Y-127974577D01*
X116509211Y-128862147D01*
X116870060Y-129071335D01*
X118496895Y-127444500D01*
X118856105Y-127444500D01*
X120482940Y-129071335D01*
X120843789Y-128862147D01*
X121221324Y-127924850D01*
X121218834Y-127670463D01*
X125795302Y-127670463D01*
X125968643Y-128089980D01*
X126289331Y-128411229D01*
X126708545Y-128585302D01*
X127162463Y-128585698D01*
X127581980Y-128412357D01*
X127903229Y-128091669D01*
X128077302Y-127672455D01*
X128077303Y-127670463D01*
X128585302Y-127670463D01*
X128758643Y-128089980D01*
X129079331Y-128411229D01*
X129498545Y-128585302D01*
X129952463Y-128585698D01*
X130371980Y-128412357D01*
X130693229Y-128091669D01*
X130867302Y-127672455D01*
X130867303Y-127670463D01*
X131335302Y-127670463D01*
X131508643Y-128089980D01*
X131829331Y-128411229D01*
X132248545Y-128585302D01*
X132702463Y-128585698D01*
X133121980Y-128412357D01*
X133443229Y-128091669D01*
X133617302Y-127672455D01*
X133617303Y-127670463D01*
X134025302Y-127670463D01*
X134198643Y-128089980D01*
X134519331Y-128411229D01*
X134938545Y-128585302D01*
X135392463Y-128585698D01*
X135811980Y-128412357D01*
X136133229Y-128091669D01*
X136307302Y-127672455D01*
X136307303Y-127670463D01*
X136865302Y-127670463D01*
X137038643Y-128089980D01*
X137359331Y-128411229D01*
X137778545Y-128585302D01*
X138232463Y-128585698D01*
X138651980Y-128412357D01*
X138973229Y-128091669D01*
X139147302Y-127672455D01*
X139147303Y-127670463D01*
X139615302Y-127670463D01*
X139788643Y-128089980D01*
X140109331Y-128411229D01*
X140528545Y-128585302D01*
X140982463Y-128585698D01*
X141401980Y-128412357D01*
X141723229Y-128091669D01*
X141897302Y-127672455D01*
X141897303Y-127670463D01*
X142355302Y-127670463D01*
X142528643Y-128089980D01*
X142849331Y-128411229D01*
X143268545Y-128585302D01*
X143722463Y-128585698D01*
X144141980Y-128412357D01*
X144463229Y-128091669D01*
X144637302Y-127672455D01*
X144637303Y-127670463D01*
X145145302Y-127670463D01*
X145318643Y-128089980D01*
X145639331Y-128411229D01*
X146058545Y-128585302D01*
X146512463Y-128585698D01*
X146931980Y-128412357D01*
X147253229Y-128091669D01*
X147427302Y-127672455D01*
X147427303Y-127670463D01*
X147895302Y-127670463D01*
X148068643Y-128089980D01*
X148389331Y-128411229D01*
X148808545Y-128585302D01*
X149262463Y-128585698D01*
X149681980Y-128412357D01*
X150003229Y-128091669D01*
X150177302Y-127672455D01*
X150177303Y-127670463D01*
X150635302Y-127670463D01*
X150808643Y-128089980D01*
X151129331Y-128411229D01*
X151548545Y-128585302D01*
X152002463Y-128585698D01*
X152395583Y-128423264D01*
X153777341Y-128423264D01*
X153846559Y-128665242D01*
X154369280Y-128851655D01*
X154923549Y-128823841D01*
X155306441Y-128665242D01*
X155375659Y-128423264D01*
X154576500Y-127624105D01*
X153777341Y-128423264D01*
X152395583Y-128423264D01*
X152421980Y-128412357D01*
X152743229Y-128091669D01*
X152917302Y-127672455D01*
X152917681Y-127237280D01*
X153169345Y-127237280D01*
X153197159Y-127791549D01*
X153355758Y-128174441D01*
X153597736Y-128243659D01*
X154396895Y-127444500D01*
X154756105Y-127444500D01*
X155555264Y-128243659D01*
X155797242Y-128174441D01*
X155976198Y-127672631D01*
X156148643Y-128089980D01*
X156469331Y-128411229D01*
X156888545Y-128585302D01*
X157342463Y-128585698D01*
X157761980Y-128412357D01*
X158083229Y-128091669D01*
X158257302Y-127672455D01*
X158257698Y-127218537D01*
X158152588Y-126964150D01*
X163121676Y-126964150D01*
X163131567Y-127974577D01*
X163499211Y-128862147D01*
X163860060Y-129071335D01*
X165486895Y-127444500D01*
X165846105Y-127444500D01*
X167472940Y-129071335D01*
X167833789Y-128862147D01*
X168211324Y-127924850D01*
X168201433Y-126914423D01*
X167833789Y-126026853D01*
X167472940Y-125817665D01*
X165846105Y-127444500D01*
X165486895Y-127444500D01*
X163860060Y-125817665D01*
X163499211Y-126026853D01*
X163121676Y-126964150D01*
X158152588Y-126964150D01*
X158084357Y-126799020D01*
X157763669Y-126477771D01*
X157344455Y-126303698D01*
X156890537Y-126303302D01*
X156471020Y-126476643D01*
X156149771Y-126797331D01*
X155975698Y-127216545D01*
X155975461Y-127488429D01*
X155955841Y-127097451D01*
X155797242Y-126714559D01*
X155555264Y-126645341D01*
X154756105Y-127444500D01*
X154396895Y-127444500D01*
X153597736Y-126645341D01*
X153355758Y-126714559D01*
X153169345Y-127237280D01*
X152917681Y-127237280D01*
X152917698Y-127218537D01*
X152744357Y-126799020D01*
X152423669Y-126477771D01*
X152394686Y-126465736D01*
X153777341Y-126465736D01*
X154576500Y-127264895D01*
X155375659Y-126465736D01*
X155306441Y-126223758D01*
X154783720Y-126037345D01*
X154229451Y-126065159D01*
X153846559Y-126223758D01*
X153777341Y-126465736D01*
X152394686Y-126465736D01*
X152004455Y-126303698D01*
X151550537Y-126303302D01*
X151131020Y-126476643D01*
X150809771Y-126797331D01*
X150635698Y-127216545D01*
X150635302Y-127670463D01*
X150177303Y-127670463D01*
X150177698Y-127218537D01*
X150004357Y-126799020D01*
X149683669Y-126477771D01*
X149264455Y-126303698D01*
X148810537Y-126303302D01*
X148391020Y-126476643D01*
X148069771Y-126797331D01*
X147895698Y-127216545D01*
X147895302Y-127670463D01*
X147427303Y-127670463D01*
X147427698Y-127218537D01*
X147254357Y-126799020D01*
X146933669Y-126477771D01*
X146514455Y-126303698D01*
X146060537Y-126303302D01*
X145641020Y-126476643D01*
X145319771Y-126797331D01*
X145145698Y-127216545D01*
X145145302Y-127670463D01*
X144637303Y-127670463D01*
X144637698Y-127218537D01*
X144464357Y-126799020D01*
X144143669Y-126477771D01*
X143724455Y-126303698D01*
X143270537Y-126303302D01*
X142851020Y-126476643D01*
X142529771Y-126797331D01*
X142355698Y-127216545D01*
X142355302Y-127670463D01*
X141897303Y-127670463D01*
X141897698Y-127218537D01*
X141724357Y-126799020D01*
X141403669Y-126477771D01*
X140984455Y-126303698D01*
X140530537Y-126303302D01*
X140111020Y-126476643D01*
X139789771Y-126797331D01*
X139615698Y-127216545D01*
X139615302Y-127670463D01*
X139147303Y-127670463D01*
X139147698Y-127218537D01*
X138974357Y-126799020D01*
X138653669Y-126477771D01*
X138234455Y-126303698D01*
X137780537Y-126303302D01*
X137361020Y-126476643D01*
X137039771Y-126797331D01*
X136865698Y-127216545D01*
X136865302Y-127670463D01*
X136307303Y-127670463D01*
X136307698Y-127218537D01*
X136134357Y-126799020D01*
X135813669Y-126477771D01*
X135394455Y-126303698D01*
X134940537Y-126303302D01*
X134521020Y-126476643D01*
X134199771Y-126797331D01*
X134025698Y-127216545D01*
X134025302Y-127670463D01*
X133617303Y-127670463D01*
X133617698Y-127218537D01*
X133444357Y-126799020D01*
X133123669Y-126477771D01*
X132704455Y-126303698D01*
X132250537Y-126303302D01*
X131831020Y-126476643D01*
X131509771Y-126797331D01*
X131335698Y-127216545D01*
X131335302Y-127670463D01*
X130867303Y-127670463D01*
X130867698Y-127218537D01*
X130694357Y-126799020D01*
X130373669Y-126477771D01*
X129954455Y-126303698D01*
X129500537Y-126303302D01*
X129081020Y-126476643D01*
X128759771Y-126797331D01*
X128585698Y-127216545D01*
X128585302Y-127670463D01*
X128077303Y-127670463D01*
X128077698Y-127218537D01*
X127904357Y-126799020D01*
X127583669Y-126477771D01*
X127164455Y-126303698D01*
X126710537Y-126303302D01*
X126291020Y-126476643D01*
X125969771Y-126797331D01*
X125795698Y-127216545D01*
X125795302Y-127670463D01*
X121218834Y-127670463D01*
X121211433Y-126914423D01*
X120843789Y-126026853D01*
X120596099Y-125883264D01*
X124737341Y-125883264D01*
X124806559Y-126125242D01*
X125329280Y-126311655D01*
X125883549Y-126283841D01*
X126266441Y-126125242D01*
X126335659Y-125883264D01*
X125536500Y-125084105D01*
X124737341Y-125883264D01*
X120596099Y-125883264D01*
X120482940Y-125817665D01*
X118856105Y-127444500D01*
X118496895Y-127444500D01*
X116870060Y-125817665D01*
X116509211Y-126026853D01*
X116131676Y-126964150D01*
X115231000Y-126964150D01*
X115231000Y-125638060D01*
X117049665Y-125638060D01*
X118676500Y-127264895D01*
X120303335Y-125638060D01*
X120094147Y-125277211D01*
X119156850Y-124899676D01*
X118146423Y-124909567D01*
X117258853Y-125277211D01*
X117049665Y-125638060D01*
X115231000Y-125638060D01*
X115231000Y-124697280D01*
X124129345Y-124697280D01*
X124157159Y-125251549D01*
X124315758Y-125634441D01*
X124557736Y-125703659D01*
X125356895Y-124904500D01*
X125716105Y-124904500D01*
X126515264Y-125703659D01*
X126757242Y-125634441D01*
X126936970Y-125130463D01*
X127195302Y-125130463D01*
X127368643Y-125549980D01*
X127689331Y-125871229D01*
X128108545Y-126045302D01*
X128562463Y-126045698D01*
X128981980Y-125872357D01*
X129303229Y-125551669D01*
X129477302Y-125132455D01*
X129477303Y-125130463D01*
X129985302Y-125130463D01*
X130158643Y-125549980D01*
X130479331Y-125871229D01*
X130898545Y-126045302D01*
X131352463Y-126045698D01*
X131771980Y-125872357D01*
X132093229Y-125551669D01*
X132267302Y-125132455D01*
X132267303Y-125130463D01*
X132655302Y-125130463D01*
X132828643Y-125549980D01*
X133149331Y-125871229D01*
X133568545Y-126045302D01*
X134022463Y-126045698D01*
X134441980Y-125872357D01*
X134763229Y-125551669D01*
X134937302Y-125132455D01*
X134937303Y-125130463D01*
X135445302Y-125130463D01*
X135618643Y-125549980D01*
X135939331Y-125871229D01*
X136358545Y-126045302D01*
X136812463Y-126045698D01*
X137231980Y-125872357D01*
X137553229Y-125551669D01*
X137727302Y-125132455D01*
X137727303Y-125130463D01*
X138245302Y-125130463D01*
X138418643Y-125549980D01*
X138739331Y-125871229D01*
X139158545Y-126045302D01*
X139612463Y-126045698D01*
X140031980Y-125872357D01*
X140353229Y-125551669D01*
X140527302Y-125132455D01*
X140527303Y-125130463D01*
X141035302Y-125130463D01*
X141208643Y-125549980D01*
X141529331Y-125871229D01*
X141948545Y-126045302D01*
X142402463Y-126045698D01*
X142821980Y-125872357D01*
X143143229Y-125551669D01*
X143317302Y-125132455D01*
X143317303Y-125130463D01*
X143705302Y-125130463D01*
X143878643Y-125549980D01*
X144199331Y-125871229D01*
X144618545Y-126045302D01*
X145072463Y-126045698D01*
X145491980Y-125872357D01*
X145813229Y-125551669D01*
X145987302Y-125132455D01*
X145987303Y-125130463D01*
X146495302Y-125130463D01*
X146668643Y-125549980D01*
X146989331Y-125871229D01*
X147408545Y-126045302D01*
X147862463Y-126045698D01*
X148281980Y-125872357D01*
X148603229Y-125551669D01*
X148777302Y-125132455D01*
X148777303Y-125130463D01*
X149285302Y-125130463D01*
X149458643Y-125549980D01*
X149779331Y-125871229D01*
X150198545Y-126045302D01*
X150652463Y-126045698D01*
X151071980Y-125872357D01*
X151393229Y-125551669D01*
X151567302Y-125132455D01*
X151567303Y-125130463D01*
X152085302Y-125130463D01*
X152258643Y-125549980D01*
X152579331Y-125871229D01*
X152998545Y-126045302D01*
X153452463Y-126045698D01*
X153845583Y-125883264D01*
X155097341Y-125883264D01*
X155166559Y-126125242D01*
X155689280Y-126311655D01*
X156243549Y-126283841D01*
X156626441Y-126125242D01*
X156695659Y-125883264D01*
X155896500Y-125084105D01*
X155097341Y-125883264D01*
X153845583Y-125883264D01*
X153871980Y-125872357D01*
X154193229Y-125551669D01*
X154367302Y-125132455D01*
X154367681Y-124697280D01*
X154489345Y-124697280D01*
X154517159Y-125251549D01*
X154675758Y-125634441D01*
X154917736Y-125703659D01*
X155716895Y-124904500D01*
X156076105Y-124904500D01*
X156875264Y-125703659D01*
X157117242Y-125634441D01*
X157303655Y-125111720D01*
X157275841Y-124557451D01*
X157117242Y-124174559D01*
X157012160Y-124144500D01*
X157538036Y-124144500D01*
X157538036Y-125664500D01*
X157564603Y-125805690D01*
X157648046Y-125935365D01*
X157775366Y-126022359D01*
X157926500Y-126052964D01*
X159446500Y-126052964D01*
X159587690Y-126026397D01*
X159717365Y-125942954D01*
X159804359Y-125815634D01*
X159834964Y-125664500D01*
X159834964Y-125638060D01*
X164039665Y-125638060D01*
X165666500Y-127264895D01*
X167293335Y-125638060D01*
X167084147Y-125277211D01*
X166146850Y-124899676D01*
X165136423Y-124909567D01*
X164248853Y-125277211D01*
X164039665Y-125638060D01*
X159834964Y-125638060D01*
X159834964Y-124144500D01*
X159808397Y-124003310D01*
X159724954Y-123873635D01*
X159597634Y-123786641D01*
X159446500Y-123756036D01*
X157926500Y-123756036D01*
X157785310Y-123782603D01*
X157655635Y-123866046D01*
X157568641Y-123993366D01*
X157538036Y-124144500D01*
X157012160Y-124144500D01*
X156875264Y-124105341D01*
X156076105Y-124904500D01*
X155716895Y-124904500D01*
X154917736Y-124105341D01*
X154675758Y-124174559D01*
X154489345Y-124697280D01*
X154367681Y-124697280D01*
X154367698Y-124678537D01*
X154194357Y-124259020D01*
X153873669Y-123937771D01*
X153844686Y-123925736D01*
X155097341Y-123925736D01*
X155896500Y-124724895D01*
X156695659Y-123925736D01*
X156626441Y-123683758D01*
X156103720Y-123497345D01*
X155549451Y-123525159D01*
X155166559Y-123683758D01*
X155097341Y-123925736D01*
X153844686Y-123925736D01*
X153454455Y-123763698D01*
X153000537Y-123763302D01*
X152581020Y-123936643D01*
X152259771Y-124257331D01*
X152085698Y-124676545D01*
X152085302Y-125130463D01*
X151567303Y-125130463D01*
X151567698Y-124678537D01*
X151394357Y-124259020D01*
X151073669Y-123937771D01*
X150654455Y-123763698D01*
X150200537Y-123763302D01*
X149781020Y-123936643D01*
X149459771Y-124257331D01*
X149285698Y-124676545D01*
X149285302Y-125130463D01*
X148777303Y-125130463D01*
X148777698Y-124678537D01*
X148604357Y-124259020D01*
X148283669Y-123937771D01*
X147864455Y-123763698D01*
X147410537Y-123763302D01*
X146991020Y-123936643D01*
X146669771Y-124257331D01*
X146495698Y-124676545D01*
X146495302Y-125130463D01*
X145987303Y-125130463D01*
X145987698Y-124678537D01*
X145814357Y-124259020D01*
X145493669Y-123937771D01*
X145074455Y-123763698D01*
X144620537Y-123763302D01*
X144201020Y-123936643D01*
X143879771Y-124257331D01*
X143705698Y-124676545D01*
X143705302Y-125130463D01*
X143317303Y-125130463D01*
X143317698Y-124678537D01*
X143144357Y-124259020D01*
X142823669Y-123937771D01*
X142404455Y-123763698D01*
X141950537Y-123763302D01*
X141531020Y-123936643D01*
X141209771Y-124257331D01*
X141035698Y-124676545D01*
X141035302Y-125130463D01*
X140527303Y-125130463D01*
X140527698Y-124678537D01*
X140354357Y-124259020D01*
X140033669Y-123937771D01*
X139614455Y-123763698D01*
X139160537Y-123763302D01*
X138741020Y-123936643D01*
X138419771Y-124257331D01*
X138245698Y-124676545D01*
X138245302Y-125130463D01*
X137727303Y-125130463D01*
X137727698Y-124678537D01*
X137554357Y-124259020D01*
X137233669Y-123937771D01*
X136814455Y-123763698D01*
X136360537Y-123763302D01*
X135941020Y-123936643D01*
X135619771Y-124257331D01*
X135445698Y-124676545D01*
X135445302Y-125130463D01*
X134937303Y-125130463D01*
X134937698Y-124678537D01*
X134764357Y-124259020D01*
X134443669Y-123937771D01*
X134024455Y-123763698D01*
X133570537Y-123763302D01*
X133151020Y-123936643D01*
X132829771Y-124257331D01*
X132655698Y-124676545D01*
X132655302Y-125130463D01*
X132267303Y-125130463D01*
X132267698Y-124678537D01*
X132094357Y-124259020D01*
X131773669Y-123937771D01*
X131354455Y-123763698D01*
X130900537Y-123763302D01*
X130481020Y-123936643D01*
X130159771Y-124257331D01*
X129985698Y-124676545D01*
X129985302Y-125130463D01*
X129477303Y-125130463D01*
X129477698Y-124678537D01*
X129304357Y-124259020D01*
X128983669Y-123937771D01*
X128564455Y-123763698D01*
X128110537Y-123763302D01*
X127691020Y-123936643D01*
X127369771Y-124257331D01*
X127195698Y-124676545D01*
X127195302Y-125130463D01*
X126936970Y-125130463D01*
X126943655Y-125111720D01*
X126915841Y-124557451D01*
X126757242Y-124174559D01*
X126515264Y-124105341D01*
X125716105Y-124904500D01*
X125356895Y-124904500D01*
X124557736Y-124105341D01*
X124315758Y-124174559D01*
X124129345Y-124697280D01*
X115231000Y-124697280D01*
X115231000Y-123925736D01*
X124737341Y-123925736D01*
X125536500Y-124724895D01*
X126335659Y-123925736D01*
X126266441Y-123683758D01*
X125743720Y-123497345D01*
X125189451Y-123525159D01*
X124806559Y-123683758D01*
X124737341Y-123925736D01*
X115231000Y-123925736D01*
X115231000Y-119435413D01*
X115919792Y-119435413D01*
X115989257Y-119677597D01*
X116512702Y-119864344D01*
X117067768Y-119836562D01*
X117451543Y-119677597D01*
X117521008Y-119435413D01*
X118459792Y-119435413D01*
X118529257Y-119677597D01*
X119052702Y-119864344D01*
X119607768Y-119836562D01*
X119991543Y-119677597D01*
X120061008Y-119435413D01*
X119260400Y-118634805D01*
X118459792Y-119435413D01*
X117521008Y-119435413D01*
X116720400Y-118634805D01*
X115919792Y-119435413D01*
X115231000Y-119435413D01*
X115231000Y-118247502D01*
X115311256Y-118247502D01*
X115339038Y-118802568D01*
X115498003Y-119186343D01*
X115740187Y-119255808D01*
X116540795Y-118455200D01*
X116900005Y-118455200D01*
X117700613Y-119255808D01*
X117942797Y-119186343D01*
X117986853Y-119062856D01*
X118038003Y-119186343D01*
X118280187Y-119255808D01*
X119080795Y-118455200D01*
X119440005Y-118455200D01*
X120240613Y-119255808D01*
X120482797Y-119186343D01*
X120669544Y-118662898D01*
X120641762Y-118107832D01*
X120482797Y-117724057D01*
X120240613Y-117654592D01*
X119440005Y-118455200D01*
X119080795Y-118455200D01*
X118280187Y-117654592D01*
X118038003Y-117724057D01*
X117993947Y-117847544D01*
X117942797Y-117724057D01*
X117700613Y-117654592D01*
X116900005Y-118455200D01*
X116540795Y-118455200D01*
X115740187Y-117654592D01*
X115498003Y-117724057D01*
X115311256Y-118247502D01*
X115231000Y-118247502D01*
X115231000Y-116895413D01*
X115919792Y-116895413D01*
X115989257Y-117137597D01*
X116112744Y-117181653D01*
X115989257Y-117232803D01*
X115919792Y-117474987D01*
X116720400Y-118275595D01*
X117521008Y-117474987D01*
X117451543Y-117232803D01*
X117328056Y-117188747D01*
X117451543Y-117137597D01*
X117521008Y-116895413D01*
X118459792Y-116895413D01*
X118529257Y-117137597D01*
X118652744Y-117181653D01*
X118529257Y-117232803D01*
X118459792Y-117474987D01*
X119260400Y-118275595D01*
X120061008Y-117474987D01*
X119991543Y-117232803D01*
X119868056Y-117188747D01*
X119991543Y-117137597D01*
X120061008Y-116895413D01*
X119260400Y-116094805D01*
X118459792Y-116895413D01*
X117521008Y-116895413D01*
X116720400Y-116094805D01*
X115919792Y-116895413D01*
X115231000Y-116895413D01*
X115231000Y-115707502D01*
X115311256Y-115707502D01*
X115339038Y-116262568D01*
X115498003Y-116646343D01*
X115740187Y-116715808D01*
X116540795Y-115915200D01*
X116900005Y-115915200D01*
X117700613Y-116715808D01*
X117942797Y-116646343D01*
X117986853Y-116522856D01*
X118038003Y-116646343D01*
X118280187Y-116715808D01*
X119080795Y-115915200D01*
X119440005Y-115915200D01*
X120240613Y-116715808D01*
X120482797Y-116646343D01*
X120669544Y-116122898D01*
X120641762Y-115567832D01*
X120482797Y-115184057D01*
X120240613Y-115114592D01*
X119440005Y-115915200D01*
X119080795Y-115915200D01*
X118280187Y-115114592D01*
X118038003Y-115184057D01*
X117993947Y-115307544D01*
X117942797Y-115184057D01*
X117700613Y-115114592D01*
X116900005Y-115915200D01*
X116540795Y-115915200D01*
X115740187Y-115114592D01*
X115498003Y-115184057D01*
X115311256Y-115707502D01*
X115231000Y-115707502D01*
X115231000Y-113601559D01*
X115577202Y-113601559D01*
X115750846Y-114021812D01*
X116072097Y-114343623D01*
X116492046Y-114518001D01*
X116686060Y-114518170D01*
X116373032Y-114533838D01*
X115989257Y-114692803D01*
X115919792Y-114934987D01*
X116720400Y-115735595D01*
X117521008Y-114934987D01*
X117451543Y-114692803D01*
X116954142Y-114515348D01*
X117367012Y-114344754D01*
X117688823Y-114023503D01*
X117863201Y-113603554D01*
X117863202Y-113601559D01*
X118117202Y-113601559D01*
X118290846Y-114021812D01*
X118612097Y-114343623D01*
X119032046Y-114518001D01*
X119226060Y-114518170D01*
X118913032Y-114533838D01*
X118529257Y-114692803D01*
X118459792Y-114934987D01*
X119260400Y-115735595D01*
X120061008Y-114934987D01*
X119991543Y-114692803D01*
X119494142Y-114515348D01*
X119907012Y-114344754D01*
X120228823Y-114023503D01*
X120403201Y-113603554D01*
X120403598Y-113148841D01*
X120229954Y-112728588D01*
X119908703Y-112406777D01*
X119488754Y-112232399D01*
X119034041Y-112232002D01*
X118613788Y-112405646D01*
X118291977Y-112726897D01*
X118117599Y-113146846D01*
X118117202Y-113601559D01*
X117863202Y-113601559D01*
X117863598Y-113148841D01*
X117689954Y-112728588D01*
X117368703Y-112406777D01*
X116948754Y-112232399D01*
X116494041Y-112232002D01*
X116073788Y-112405646D01*
X115751977Y-112726897D01*
X115577599Y-113146846D01*
X115577202Y-113601559D01*
X115231000Y-113601559D01*
X115231000Y-111061559D01*
X115577202Y-111061559D01*
X115750846Y-111481812D01*
X116072097Y-111803623D01*
X116492046Y-111978001D01*
X116946759Y-111978398D01*
X117367012Y-111804754D01*
X117688823Y-111483503D01*
X117863201Y-111063554D01*
X117863202Y-111061559D01*
X118117202Y-111061559D01*
X118290846Y-111481812D01*
X118612097Y-111803623D01*
X119032046Y-111978001D01*
X119486759Y-111978398D01*
X119907012Y-111804754D01*
X120228823Y-111483503D01*
X120403201Y-111063554D01*
X120403598Y-110608841D01*
X120229954Y-110188588D01*
X119908703Y-109866777D01*
X119488754Y-109692399D01*
X119034041Y-109692002D01*
X118613788Y-109865646D01*
X118291977Y-110186897D01*
X118117599Y-110606846D01*
X118117202Y-111061559D01*
X117863202Y-111061559D01*
X117863598Y-110608841D01*
X117689954Y-110188588D01*
X117368703Y-109866777D01*
X116948754Y-109692399D01*
X116494041Y-109692002D01*
X116073788Y-109865646D01*
X115751977Y-110186897D01*
X115577599Y-110606846D01*
X115577202Y-111061559D01*
X115231000Y-111061559D01*
X115231000Y-108521559D01*
X115577202Y-108521559D01*
X115750846Y-108941812D01*
X116072097Y-109263623D01*
X116492046Y-109438001D01*
X116946759Y-109438398D01*
X117367012Y-109264754D01*
X117688823Y-108943503D01*
X117863201Y-108523554D01*
X117863202Y-108521559D01*
X118117202Y-108521559D01*
X118290846Y-108941812D01*
X118612097Y-109263623D01*
X119032046Y-109438001D01*
X119486759Y-109438398D01*
X119907012Y-109264754D01*
X120228823Y-108943503D01*
X120403201Y-108523554D01*
X120403598Y-108068841D01*
X120229954Y-107648588D01*
X119908703Y-107326777D01*
X119488754Y-107152399D01*
X119034041Y-107152002D01*
X118613788Y-107325646D01*
X118291977Y-107646897D01*
X118117599Y-108066846D01*
X118117202Y-108521559D01*
X117863202Y-108521559D01*
X117863598Y-108068841D01*
X117689954Y-107648588D01*
X117368703Y-107326777D01*
X116948754Y-107152399D01*
X116494041Y-107152002D01*
X116073788Y-107325646D01*
X115751977Y-107646897D01*
X115577599Y-108066846D01*
X115577202Y-108521559D01*
X115231000Y-108521559D01*
X115231000Y-105981559D01*
X115577202Y-105981559D01*
X115750846Y-106401812D01*
X116072097Y-106723623D01*
X116492046Y-106898001D01*
X116946759Y-106898398D01*
X117367012Y-106724754D01*
X117688823Y-106403503D01*
X117863201Y-105983554D01*
X117863202Y-105981559D01*
X118117202Y-105981559D01*
X118290846Y-106401812D01*
X118612097Y-106723623D01*
X119032046Y-106898001D01*
X119486759Y-106898398D01*
X119907012Y-106724754D01*
X120228823Y-106403503D01*
X120403201Y-105983554D01*
X120403598Y-105528841D01*
X120229954Y-105108588D01*
X119908703Y-104786777D01*
X119488754Y-104612399D01*
X119034041Y-104612002D01*
X118613788Y-104785646D01*
X118291977Y-105106897D01*
X118117599Y-105526846D01*
X118117202Y-105981559D01*
X117863202Y-105981559D01*
X117863598Y-105528841D01*
X117689954Y-105108588D01*
X117368703Y-104786777D01*
X116948754Y-104612399D01*
X116494041Y-104612002D01*
X116073788Y-104785646D01*
X115751977Y-105106897D01*
X115577599Y-105526846D01*
X115577202Y-105981559D01*
X115231000Y-105981559D01*
X115231000Y-103441559D01*
X115577202Y-103441559D01*
X115750846Y-103861812D01*
X116072097Y-104183623D01*
X116492046Y-104358001D01*
X116946759Y-104358398D01*
X117367012Y-104184754D01*
X117688823Y-103863503D01*
X117863201Y-103443554D01*
X117863202Y-103441559D01*
X118117202Y-103441559D01*
X118290846Y-103861812D01*
X118612097Y-104183623D01*
X119032046Y-104358001D01*
X119486759Y-104358398D01*
X119907012Y-104184754D01*
X120228823Y-103863503D01*
X120403201Y-103443554D01*
X120403598Y-102988841D01*
X120229954Y-102568588D01*
X119908703Y-102246777D01*
X119488754Y-102072399D01*
X119034041Y-102072002D01*
X118613788Y-102245646D01*
X118291977Y-102566897D01*
X118117599Y-102986846D01*
X118117202Y-103441559D01*
X117863202Y-103441559D01*
X117863598Y-102988841D01*
X117689954Y-102568588D01*
X117368703Y-102246777D01*
X116948754Y-102072399D01*
X116494041Y-102072002D01*
X116073788Y-102245646D01*
X115751977Y-102566897D01*
X115577599Y-102986846D01*
X115577202Y-103441559D01*
X115231000Y-103441559D01*
X115231000Y-100901559D01*
X115577202Y-100901559D01*
X115750846Y-101321812D01*
X116072097Y-101643623D01*
X116492046Y-101818001D01*
X116946759Y-101818398D01*
X117367012Y-101644754D01*
X117688823Y-101323503D01*
X117863201Y-100903554D01*
X117863202Y-100901559D01*
X118117202Y-100901559D01*
X118290846Y-101321812D01*
X118612097Y-101643623D01*
X119032046Y-101818001D01*
X119486759Y-101818398D01*
X119907012Y-101644754D01*
X120228823Y-101323503D01*
X120403201Y-100903554D01*
X120403598Y-100448841D01*
X120229954Y-100028588D01*
X119908703Y-99706777D01*
X119488754Y-99532399D01*
X119034041Y-99532002D01*
X118613788Y-99705646D01*
X118291977Y-100026897D01*
X118117599Y-100446846D01*
X118117202Y-100901559D01*
X117863202Y-100901559D01*
X117863598Y-100448841D01*
X117689954Y-100028588D01*
X117368703Y-99706777D01*
X116948754Y-99532399D01*
X116494041Y-99532002D01*
X116073788Y-99705646D01*
X115751977Y-100026897D01*
X115577599Y-100446846D01*
X115577202Y-100901559D01*
X115231000Y-100901559D01*
X115231000Y-98361559D01*
X115577202Y-98361559D01*
X115750846Y-98781812D01*
X116072097Y-99103623D01*
X116492046Y-99278001D01*
X116946759Y-99278398D01*
X117367012Y-99104754D01*
X117688823Y-98783503D01*
X117863201Y-98363554D01*
X117863202Y-98361559D01*
X118117202Y-98361559D01*
X118290846Y-98781812D01*
X118612097Y-99103623D01*
X119032046Y-99278001D01*
X119486759Y-99278398D01*
X119907012Y-99104754D01*
X120228823Y-98783503D01*
X120403201Y-98363554D01*
X120403598Y-97908841D01*
X120229954Y-97488588D01*
X119908703Y-97166777D01*
X119488754Y-96992399D01*
X119034041Y-96992002D01*
X118613788Y-97165646D01*
X118291977Y-97486897D01*
X118117599Y-97906846D01*
X118117202Y-98361559D01*
X117863202Y-98361559D01*
X117863598Y-97908841D01*
X117689954Y-97488588D01*
X117368703Y-97166777D01*
X116948754Y-96992399D01*
X116494041Y-96992002D01*
X116073788Y-97165646D01*
X115751977Y-97486897D01*
X115577599Y-97906846D01*
X115577202Y-98361559D01*
X115231000Y-98361559D01*
X115231000Y-95821559D01*
X115577202Y-95821559D01*
X115750846Y-96241812D01*
X116072097Y-96563623D01*
X116492046Y-96738001D01*
X116946759Y-96738398D01*
X117367012Y-96564754D01*
X117688823Y-96243503D01*
X117863201Y-95823554D01*
X117863202Y-95821559D01*
X118117202Y-95821559D01*
X118290846Y-96241812D01*
X118612097Y-96563623D01*
X119032046Y-96738001D01*
X119486759Y-96738398D01*
X119907012Y-96564754D01*
X120228823Y-96243503D01*
X120403201Y-95823554D01*
X120403598Y-95368841D01*
X120229954Y-94948588D01*
X119908703Y-94626777D01*
X119488754Y-94452399D01*
X119034041Y-94452002D01*
X118613788Y-94625646D01*
X118291977Y-94946897D01*
X118117599Y-95366846D01*
X118117202Y-95821559D01*
X117863202Y-95821559D01*
X117863598Y-95368841D01*
X117689954Y-94948588D01*
X117368703Y-94626777D01*
X116948754Y-94452399D01*
X116494041Y-94452002D01*
X116073788Y-94625646D01*
X115751977Y-94946897D01*
X115577599Y-95366846D01*
X115577202Y-95821559D01*
X115231000Y-95821559D01*
X115231000Y-93281559D01*
X115577202Y-93281559D01*
X115750846Y-93701812D01*
X116072097Y-94023623D01*
X116492046Y-94198001D01*
X116946759Y-94198398D01*
X117367012Y-94024754D01*
X117688823Y-93703503D01*
X117863201Y-93283554D01*
X117863202Y-93281559D01*
X118117202Y-93281559D01*
X118290846Y-93701812D01*
X118612097Y-94023623D01*
X119032046Y-94198001D01*
X119486759Y-94198398D01*
X119907012Y-94024754D01*
X120228823Y-93703503D01*
X120403201Y-93283554D01*
X120403598Y-92828841D01*
X120229954Y-92408588D01*
X119908703Y-92086777D01*
X119488754Y-91912399D01*
X119034041Y-91912002D01*
X118613788Y-92085646D01*
X118291977Y-92406897D01*
X118117599Y-92826846D01*
X118117202Y-93281559D01*
X117863202Y-93281559D01*
X117863598Y-92828841D01*
X117689954Y-92408588D01*
X117368703Y-92086777D01*
X116948754Y-91912399D01*
X116494041Y-91912002D01*
X116073788Y-92085646D01*
X115751977Y-92406897D01*
X115577599Y-92826846D01*
X115577202Y-93281559D01*
X115231000Y-93281559D01*
X115231000Y-90741559D01*
X115577202Y-90741559D01*
X115750846Y-91161812D01*
X116072097Y-91483623D01*
X116492046Y-91658001D01*
X116946759Y-91658398D01*
X117367012Y-91484754D01*
X117688823Y-91163503D01*
X117863201Y-90743554D01*
X117863202Y-90741559D01*
X118117202Y-90741559D01*
X118290846Y-91161812D01*
X118612097Y-91483623D01*
X119032046Y-91658001D01*
X119486759Y-91658398D01*
X119907012Y-91484754D01*
X120228823Y-91163503D01*
X120403201Y-90743554D01*
X120403598Y-90288841D01*
X120229954Y-89868588D01*
X119908703Y-89546777D01*
X119488754Y-89372399D01*
X119034041Y-89372002D01*
X118613788Y-89545646D01*
X118291977Y-89866897D01*
X118117599Y-90286846D01*
X118117202Y-90741559D01*
X117863202Y-90741559D01*
X117863598Y-90288841D01*
X117689954Y-89868588D01*
X117368703Y-89546777D01*
X116948754Y-89372399D01*
X116494041Y-89372002D01*
X116073788Y-89545646D01*
X115751977Y-89866897D01*
X115577599Y-90286846D01*
X115577202Y-90741559D01*
X115231000Y-90741559D01*
X115231000Y-88201559D01*
X115577202Y-88201559D01*
X115750846Y-88621812D01*
X116072097Y-88943623D01*
X116492046Y-89118001D01*
X116946759Y-89118398D01*
X117367012Y-88944754D01*
X117688823Y-88623503D01*
X117863201Y-88203554D01*
X117863202Y-88201559D01*
X118117202Y-88201559D01*
X118290846Y-88621812D01*
X118612097Y-88943623D01*
X119032046Y-89118001D01*
X119486759Y-89118398D01*
X119907012Y-88944754D01*
X120228823Y-88623503D01*
X120403201Y-88203554D01*
X120403598Y-87748841D01*
X120229954Y-87328588D01*
X119908703Y-87006777D01*
X119488754Y-86832399D01*
X119034041Y-86832002D01*
X118613788Y-87005646D01*
X118291977Y-87326897D01*
X118117599Y-87746846D01*
X118117202Y-88201559D01*
X117863202Y-88201559D01*
X117863598Y-87748841D01*
X117689954Y-87328588D01*
X117368703Y-87006777D01*
X116948754Y-86832399D01*
X116494041Y-86832002D01*
X116073788Y-87005646D01*
X115751977Y-87326897D01*
X115577599Y-87746846D01*
X115577202Y-88201559D01*
X115231000Y-88201559D01*
X115231000Y-85661559D01*
X115577202Y-85661559D01*
X115750846Y-86081812D01*
X116072097Y-86403623D01*
X116492046Y-86578001D01*
X116946759Y-86578398D01*
X117367012Y-86404754D01*
X117688823Y-86083503D01*
X117863201Y-85663554D01*
X117863202Y-85661559D01*
X118117202Y-85661559D01*
X118290846Y-86081812D01*
X118612097Y-86403623D01*
X119032046Y-86578001D01*
X119486759Y-86578398D01*
X119907012Y-86404754D01*
X120228823Y-86083503D01*
X120403201Y-85663554D01*
X120403598Y-85208841D01*
X120229954Y-84788588D01*
X119908703Y-84466777D01*
X119488754Y-84292399D01*
X119034041Y-84292002D01*
X118613788Y-84465646D01*
X118291977Y-84786897D01*
X118117599Y-85206846D01*
X118117202Y-85661559D01*
X117863202Y-85661559D01*
X117863598Y-85208841D01*
X117689954Y-84788588D01*
X117368703Y-84466777D01*
X116948754Y-84292399D01*
X116494041Y-84292002D01*
X116073788Y-84465646D01*
X115751977Y-84786897D01*
X115577599Y-85206846D01*
X115577202Y-85661559D01*
X115231000Y-85661559D01*
X115231000Y-83121559D01*
X115577202Y-83121559D01*
X115750846Y-83541812D01*
X116072097Y-83863623D01*
X116492046Y-84038001D01*
X116946759Y-84038398D01*
X117367012Y-83864754D01*
X117688823Y-83543503D01*
X117863201Y-83123554D01*
X117863202Y-83121559D01*
X118117202Y-83121559D01*
X118290846Y-83541812D01*
X118612097Y-83863623D01*
X119032046Y-84038001D01*
X119486759Y-84038398D01*
X119907012Y-83864754D01*
X120228823Y-83543503D01*
X120403201Y-83123554D01*
X120403598Y-82668841D01*
X120229954Y-82248588D01*
X119908703Y-81926777D01*
X119488754Y-81752399D01*
X119034041Y-81752002D01*
X118613788Y-81925646D01*
X118291977Y-82246897D01*
X118117599Y-82666846D01*
X118117202Y-83121559D01*
X117863202Y-83121559D01*
X117863598Y-82668841D01*
X117689954Y-82248588D01*
X117368703Y-81926777D01*
X116948754Y-81752399D01*
X116494041Y-81752002D01*
X116073788Y-81925646D01*
X115751977Y-82246897D01*
X115577599Y-82666846D01*
X115577202Y-83121559D01*
X115231000Y-83121559D01*
X115231000Y-80581559D01*
X115577202Y-80581559D01*
X115750846Y-81001812D01*
X116072097Y-81323623D01*
X116492046Y-81498001D01*
X116946759Y-81498398D01*
X117367012Y-81324754D01*
X117688823Y-81003503D01*
X117863201Y-80583554D01*
X117863202Y-80581559D01*
X118117202Y-80581559D01*
X118290846Y-81001812D01*
X118612097Y-81323623D01*
X119032046Y-81498001D01*
X119486759Y-81498398D01*
X119907012Y-81324754D01*
X120228823Y-81003503D01*
X120403201Y-80583554D01*
X120403598Y-80128841D01*
X120229954Y-79708588D01*
X119908703Y-79386777D01*
X119488754Y-79212399D01*
X119034041Y-79212002D01*
X118613788Y-79385646D01*
X118291977Y-79706897D01*
X118117599Y-80126846D01*
X118117202Y-80581559D01*
X117863202Y-80581559D01*
X117863598Y-80128841D01*
X117689954Y-79708588D01*
X117368703Y-79386777D01*
X116948754Y-79212399D01*
X116494041Y-79212002D01*
X116073788Y-79385646D01*
X115751977Y-79706897D01*
X115577599Y-80126846D01*
X115577202Y-80581559D01*
X115231000Y-80581559D01*
X115231000Y-78041559D01*
X115577202Y-78041559D01*
X115750846Y-78461812D01*
X116072097Y-78783623D01*
X116492046Y-78958001D01*
X116946759Y-78958398D01*
X117367012Y-78784754D01*
X117688823Y-78463503D01*
X117863201Y-78043554D01*
X117863202Y-78041559D01*
X118117202Y-78041559D01*
X118290846Y-78461812D01*
X118612097Y-78783623D01*
X119032046Y-78958001D01*
X119486759Y-78958398D01*
X119907012Y-78784754D01*
X120228823Y-78463503D01*
X120403201Y-78043554D01*
X120403598Y-77588841D01*
X120229954Y-77168588D01*
X119908703Y-76846777D01*
X119488754Y-76672399D01*
X119034041Y-76672002D01*
X118613788Y-76845646D01*
X118291977Y-77166897D01*
X118117599Y-77586846D01*
X118117202Y-78041559D01*
X117863202Y-78041559D01*
X117863598Y-77588841D01*
X117689954Y-77168588D01*
X117368703Y-76846777D01*
X116948754Y-76672399D01*
X116494041Y-76672002D01*
X116073788Y-76845646D01*
X115751977Y-77166897D01*
X115577599Y-77586846D01*
X115577202Y-78041559D01*
X115231000Y-78041559D01*
X115231000Y-75501559D01*
X115577202Y-75501559D01*
X115750846Y-75921812D01*
X116072097Y-76243623D01*
X116492046Y-76418001D01*
X116946759Y-76418398D01*
X117367012Y-76244754D01*
X117688823Y-75923503D01*
X117863201Y-75503554D01*
X117863202Y-75501559D01*
X118117202Y-75501559D01*
X118290846Y-75921812D01*
X118612097Y-76243623D01*
X119032046Y-76418001D01*
X119486759Y-76418398D01*
X119907012Y-76244754D01*
X120228823Y-75923503D01*
X120403201Y-75503554D01*
X120403598Y-75048841D01*
X120229954Y-74628588D01*
X119908703Y-74306777D01*
X119488754Y-74132399D01*
X119034041Y-74132002D01*
X118613788Y-74305646D01*
X118291977Y-74626897D01*
X118117599Y-75046846D01*
X118117202Y-75501559D01*
X117863202Y-75501559D01*
X117863598Y-75048841D01*
X117689954Y-74628588D01*
X117368703Y-74306777D01*
X116948754Y-74132399D01*
X116494041Y-74132002D01*
X116073788Y-74305646D01*
X115751977Y-74626897D01*
X115577599Y-75046846D01*
X115577202Y-75501559D01*
X115231000Y-75501559D01*
X115231000Y-72961559D01*
X115577202Y-72961559D01*
X115750846Y-73381812D01*
X116072097Y-73703623D01*
X116492046Y-73878001D01*
X116946759Y-73878398D01*
X117367012Y-73704754D01*
X117688823Y-73383503D01*
X117863201Y-72963554D01*
X117863598Y-72508841D01*
X117689954Y-72088588D01*
X117368703Y-71766777D01*
X116948754Y-71592399D01*
X116494041Y-71592002D01*
X116073788Y-71765646D01*
X115751977Y-72086897D01*
X115577599Y-72506846D01*
X115577202Y-72961559D01*
X115231000Y-72961559D01*
X115231000Y-70421559D01*
X115577202Y-70421559D01*
X115750846Y-70841812D01*
X116072097Y-71163623D01*
X116492046Y-71338001D01*
X116946759Y-71338398D01*
X117367012Y-71164754D01*
X117688823Y-70843503D01*
X117863201Y-70423554D01*
X117863202Y-70421559D01*
X118117202Y-70421559D01*
X118290846Y-70841812D01*
X118612097Y-71163623D01*
X119032046Y-71338001D01*
X119486759Y-71338398D01*
X119907012Y-71164754D01*
X120228823Y-70843503D01*
X120403201Y-70423554D01*
X120403598Y-69968841D01*
X120229954Y-69548588D01*
X119908703Y-69226777D01*
X119488754Y-69052399D01*
X119034041Y-69052002D01*
X118613788Y-69225646D01*
X118291977Y-69546897D01*
X118117599Y-69966846D01*
X118117202Y-70421559D01*
X117863202Y-70421559D01*
X117863598Y-69968841D01*
X117689954Y-69548588D01*
X117368703Y-69226777D01*
X116948754Y-69052399D01*
X116494041Y-69052002D01*
X116073788Y-69225646D01*
X115751977Y-69546897D01*
X115577599Y-69966846D01*
X115577202Y-70421559D01*
X115231000Y-70421559D01*
X115231000Y-67881559D01*
X115577202Y-67881559D01*
X115750846Y-68301812D01*
X116072097Y-68623623D01*
X116492046Y-68798001D01*
X116946759Y-68798398D01*
X117367012Y-68624754D01*
X117688823Y-68303503D01*
X117863201Y-67883554D01*
X117863202Y-67881559D01*
X118117202Y-67881559D01*
X118290846Y-68301812D01*
X118612097Y-68623623D01*
X119032046Y-68798001D01*
X119486759Y-68798398D01*
X119907012Y-68624754D01*
X120228823Y-68303503D01*
X120403201Y-67883554D01*
X120403598Y-67428841D01*
X120229954Y-67008588D01*
X119908703Y-66686777D01*
X119488754Y-66512399D01*
X119034041Y-66512002D01*
X118613788Y-66685646D01*
X118291977Y-67006897D01*
X118117599Y-67426846D01*
X118117202Y-67881559D01*
X117863202Y-67881559D01*
X117863598Y-67428841D01*
X117689954Y-67008588D01*
X117368703Y-66686777D01*
X116948754Y-66512399D01*
X116494041Y-66512002D01*
X116073788Y-66685646D01*
X115751977Y-67006897D01*
X115577599Y-67426846D01*
X115577202Y-67881559D01*
X115231000Y-67881559D01*
X115231000Y-65341559D01*
X115577202Y-65341559D01*
X115750846Y-65761812D01*
X116072097Y-66083623D01*
X116492046Y-66258001D01*
X116946759Y-66258398D01*
X117367012Y-66084754D01*
X117688823Y-65763503D01*
X117727151Y-65671200D01*
X118253406Y-65671200D01*
X118290846Y-65761812D01*
X118612097Y-66083623D01*
X119032046Y-66258001D01*
X119486759Y-66258398D01*
X119907012Y-66084754D01*
X120228823Y-65763503D01*
X120267151Y-65671200D01*
X121018898Y-65671200D01*
X122062500Y-66714803D01*
X122062500Y-73324632D01*
X121961711Y-73173790D01*
X121163910Y-72375990D01*
X120999103Y-72265869D01*
X120804700Y-72227200D01*
X120287227Y-72227200D01*
X120229954Y-72088588D01*
X119908703Y-71766777D01*
X119488754Y-71592399D01*
X119034041Y-71592002D01*
X118613788Y-71765646D01*
X118291977Y-72086897D01*
X118117599Y-72506846D01*
X118117202Y-72961559D01*
X118290846Y-73381812D01*
X118612097Y-73703623D01*
X119032046Y-73878001D01*
X119486759Y-73878398D01*
X119907012Y-73704754D01*
X120228823Y-73383503D01*
X120287082Y-73243200D01*
X120594280Y-73243200D01*
X121094500Y-73743421D01*
X121094500Y-111535533D01*
X120935364Y-111694391D01*
X120815237Y-111983689D01*
X120814964Y-112296936D01*
X120934586Y-112586444D01*
X121155891Y-112808136D01*
X121445189Y-112928263D01*
X121758436Y-112928536D01*
X122047944Y-112808914D01*
X122269636Y-112587609D01*
X122389763Y-112298311D01*
X122389874Y-112169936D01*
X131800464Y-112169936D01*
X131920086Y-112459444D01*
X132141391Y-112681136D01*
X132430689Y-112801263D01*
X132657040Y-112801460D01*
X134641790Y-114786210D01*
X134806596Y-114896331D01*
X134838850Y-114902746D01*
X135001000Y-114935000D01*
X160254080Y-114935000D01*
X163788290Y-118469211D01*
X163788293Y-118469213D01*
X163837345Y-118518265D01*
X163837202Y-118681559D01*
X164010846Y-119101812D01*
X164332097Y-119423623D01*
X164752046Y-119598001D01*
X165206759Y-119598398D01*
X165627012Y-119424754D01*
X165948823Y-119103503D01*
X166123201Y-118683554D01*
X166123598Y-118228841D01*
X165949954Y-117808588D01*
X165870504Y-117729000D01*
X166075780Y-117729000D01*
X166435114Y-118088334D01*
X166377599Y-118226846D01*
X166377202Y-118681559D01*
X166550846Y-119101812D01*
X166872097Y-119423623D01*
X167292046Y-119598001D01*
X167746759Y-119598398D01*
X168167012Y-119424754D01*
X168488823Y-119103503D01*
X168663201Y-118683554D01*
X168663598Y-118228841D01*
X168489954Y-117808588D01*
X168168703Y-117486777D01*
X167748754Y-117312399D01*
X167294041Y-117312002D01*
X167153636Y-117370016D01*
X166645410Y-116861790D01*
X166480603Y-116751669D01*
X166286200Y-116713000D01*
X165799065Y-116713000D01*
X165948823Y-116563503D01*
X166123201Y-116143554D01*
X166123598Y-115688841D01*
X165949954Y-115268588D01*
X165870504Y-115189000D01*
X166075780Y-115189000D01*
X166435114Y-115548334D01*
X166377599Y-115686846D01*
X166377202Y-116141559D01*
X166550846Y-116561812D01*
X166872097Y-116883623D01*
X167292046Y-117058001D01*
X167746759Y-117058398D01*
X168167012Y-116884754D01*
X168488823Y-116563503D01*
X168663201Y-116143554D01*
X168663598Y-115688841D01*
X168489954Y-115268588D01*
X168168703Y-114946777D01*
X167748754Y-114772399D01*
X167294041Y-114772002D01*
X167153636Y-114830016D01*
X166645410Y-114321790D01*
X166480603Y-114211669D01*
X166286200Y-114173000D01*
X165799065Y-114173000D01*
X165948823Y-114023503D01*
X166123201Y-113603554D01*
X166123598Y-113148841D01*
X165949954Y-112728588D01*
X165933894Y-112712500D01*
X166139280Y-112712500D01*
X166435114Y-113008334D01*
X166377599Y-113146846D01*
X166377202Y-113601559D01*
X166550846Y-114021812D01*
X166872097Y-114343623D01*
X167292046Y-114518001D01*
X167746759Y-114518398D01*
X168167012Y-114344754D01*
X168488823Y-114023503D01*
X168663201Y-113603554D01*
X168663598Y-113148841D01*
X168489954Y-112728588D01*
X168168703Y-112406777D01*
X167748754Y-112232399D01*
X167294041Y-112232002D01*
X167153636Y-112290016D01*
X166708910Y-111845290D01*
X166544103Y-111735169D01*
X166349700Y-111696500D01*
X165735455Y-111696500D01*
X165948823Y-111483503D01*
X166123201Y-111063554D01*
X166123598Y-110608841D01*
X165949954Y-110188588D01*
X165933894Y-110172500D01*
X166566399Y-110172500D01*
X166551977Y-110186897D01*
X166377599Y-110606846D01*
X166377202Y-111061559D01*
X166550846Y-111481812D01*
X166872097Y-111803623D01*
X167292046Y-111978001D01*
X167746759Y-111978398D01*
X168167012Y-111804754D01*
X168488823Y-111483503D01*
X168663201Y-111063554D01*
X168663598Y-110608841D01*
X168489954Y-110188588D01*
X168168703Y-109866777D01*
X167861731Y-109739311D01*
X167560656Y-109438236D01*
X167746759Y-109438398D01*
X168167012Y-109264754D01*
X168488823Y-108943503D01*
X168663201Y-108523554D01*
X168663598Y-108068841D01*
X168489954Y-107648588D01*
X168168703Y-107326777D01*
X167748754Y-107152399D01*
X167294041Y-107152002D01*
X166873788Y-107325646D01*
X166551977Y-107646897D01*
X166377599Y-108066846D01*
X166377202Y-108521559D01*
X166550846Y-108941812D01*
X166765160Y-109156500D01*
X165735455Y-109156500D01*
X165948823Y-108943503D01*
X166123201Y-108523554D01*
X166123598Y-108068841D01*
X165949954Y-107648588D01*
X165628703Y-107326777D01*
X165208754Y-107152399D01*
X164754041Y-107152002D01*
X164333788Y-107325646D01*
X164011977Y-107646897D01*
X163837599Y-108066846D01*
X163837202Y-108521559D01*
X164010846Y-108941812D01*
X164317313Y-109248813D01*
X164232789Y-109305290D01*
X163429080Y-110109000D01*
X154047042Y-110109000D01*
X154020414Y-110044556D01*
X153799109Y-109822864D01*
X153509811Y-109702737D01*
X153196564Y-109702464D01*
X152907056Y-109822086D01*
X152685364Y-110043391D01*
X152565237Y-110332689D01*
X152565207Y-110367025D01*
X152529109Y-110330864D01*
X152239811Y-110210737D01*
X151926564Y-110210464D01*
X151637056Y-110330086D01*
X151415364Y-110551391D01*
X151295237Y-110840689D01*
X151294964Y-111153936D01*
X151335483Y-111252000D01*
X146900900Y-111252000D01*
X146901036Y-111096064D01*
X146781414Y-110806556D01*
X146560109Y-110584864D01*
X146270811Y-110464737D01*
X145957564Y-110464464D01*
X145668056Y-110584086D01*
X145446364Y-110805391D01*
X145326237Y-111094689D01*
X145326207Y-111129025D01*
X145290109Y-111092864D01*
X145000811Y-110972737D01*
X144687564Y-110972464D01*
X144398056Y-111092086D01*
X144176364Y-111313391D01*
X144056237Y-111602689D01*
X144055964Y-111915936D01*
X144175586Y-112205444D01*
X144238033Y-112268000D01*
X142450420Y-112268000D01*
X141820840Y-111638420D01*
X141821036Y-111413564D01*
X141701414Y-111124056D01*
X141480109Y-110902364D01*
X141190811Y-110782237D01*
X140877564Y-110781964D01*
X140588056Y-110901586D01*
X140366364Y-111122891D01*
X140347921Y-111167306D01*
X140273609Y-111092864D01*
X139984311Y-110972737D01*
X139671064Y-110972464D01*
X139381556Y-111092086D01*
X139159864Y-111313391D01*
X139039737Y-111602689D01*
X139039464Y-111915936D01*
X139159086Y-112205444D01*
X139380391Y-112427136D01*
X139669689Y-112547263D01*
X139896040Y-112547460D01*
X140696080Y-113347500D01*
X135719421Y-113347500D01*
X134645340Y-112273420D01*
X134645536Y-112048564D01*
X134525914Y-111759056D01*
X134304609Y-111537364D01*
X134015311Y-111417237D01*
X133702064Y-111416964D01*
X133412556Y-111536586D01*
X133292304Y-111656628D01*
X133255914Y-111568556D01*
X133034609Y-111346864D01*
X132745311Y-111226737D01*
X132432064Y-111226464D01*
X132142556Y-111346086D01*
X131920864Y-111567391D01*
X131800737Y-111856689D01*
X131800464Y-112169936D01*
X122389874Y-112169936D01*
X122390036Y-111985064D01*
X122270414Y-111695556D01*
X122110500Y-111535362D01*
X122110500Y-110143138D01*
X122171891Y-110204636D01*
X122461189Y-110324763D01*
X122774436Y-110325036D01*
X123063944Y-110205414D01*
X123285636Y-109984109D01*
X123405763Y-109694811D01*
X123406036Y-109381564D01*
X123286414Y-109092056D01*
X123174500Y-108979946D01*
X123174500Y-105981559D01*
X163837202Y-105981559D01*
X164010846Y-106401812D01*
X164332097Y-106723623D01*
X164752046Y-106898001D01*
X165206759Y-106898398D01*
X165627012Y-106724754D01*
X165948823Y-106403503D01*
X166123201Y-105983554D01*
X166123202Y-105981559D01*
X166377202Y-105981559D01*
X166550846Y-106401812D01*
X166872097Y-106723623D01*
X167292046Y-106898001D01*
X167746759Y-106898398D01*
X168167012Y-106724754D01*
X168488823Y-106403503D01*
X168663201Y-105983554D01*
X168663598Y-105528841D01*
X168489954Y-105108588D01*
X168168703Y-104786777D01*
X167748754Y-104612399D01*
X167294041Y-104612002D01*
X166873788Y-104785646D01*
X166551977Y-105106897D01*
X166377599Y-105526846D01*
X166377202Y-105981559D01*
X166123202Y-105981559D01*
X166123598Y-105528841D01*
X165949954Y-105108588D01*
X165628703Y-104786777D01*
X165208754Y-104612399D01*
X164754041Y-104612002D01*
X164333788Y-104785646D01*
X164011977Y-105106897D01*
X163837599Y-105526846D01*
X163837202Y-105981559D01*
X123174500Y-105981559D01*
X123174500Y-103441559D01*
X163837202Y-103441559D01*
X164010846Y-103861812D01*
X164332097Y-104183623D01*
X164752046Y-104358001D01*
X165206759Y-104358398D01*
X165627012Y-104184754D01*
X165948823Y-103863503D01*
X166123201Y-103443554D01*
X166123202Y-103441559D01*
X166377202Y-103441559D01*
X166550846Y-103861812D01*
X166872097Y-104183623D01*
X167292046Y-104358001D01*
X167746759Y-104358398D01*
X168167012Y-104184754D01*
X168488823Y-103863503D01*
X168663201Y-103443554D01*
X168663598Y-102988841D01*
X168489954Y-102568588D01*
X168168703Y-102246777D01*
X167748754Y-102072399D01*
X167294041Y-102072002D01*
X166873788Y-102245646D01*
X166551977Y-102566897D01*
X166377599Y-102986846D01*
X166377202Y-103441559D01*
X166123202Y-103441559D01*
X166123598Y-102988841D01*
X165949954Y-102568588D01*
X165628703Y-102246777D01*
X165208754Y-102072399D01*
X164754041Y-102072002D01*
X164333788Y-102245646D01*
X164011977Y-102566897D01*
X163837599Y-102986846D01*
X163837202Y-103441559D01*
X123174500Y-103441559D01*
X123174500Y-100901559D01*
X163837202Y-100901559D01*
X164010846Y-101321812D01*
X164332097Y-101643623D01*
X164752046Y-101818001D01*
X165206759Y-101818398D01*
X165627012Y-101644754D01*
X165948823Y-101323503D01*
X166123201Y-100903554D01*
X166123202Y-100901559D01*
X166377202Y-100901559D01*
X166550846Y-101321812D01*
X166872097Y-101643623D01*
X167292046Y-101818001D01*
X167746759Y-101818398D01*
X168167012Y-101644754D01*
X168488823Y-101323503D01*
X168663201Y-100903554D01*
X168663598Y-100448841D01*
X168489954Y-100028588D01*
X168168703Y-99706777D01*
X167748754Y-99532399D01*
X167294041Y-99532002D01*
X166873788Y-99705646D01*
X166551977Y-100026897D01*
X166377599Y-100446846D01*
X166377202Y-100901559D01*
X166123202Y-100901559D01*
X166123598Y-100448841D01*
X165949954Y-100028588D01*
X165628703Y-99706777D01*
X165208754Y-99532399D01*
X164754041Y-99532002D01*
X164333788Y-99705646D01*
X164011977Y-100026897D01*
X163837599Y-100446846D01*
X163837202Y-100901559D01*
X123174500Y-100901559D01*
X123174500Y-98361559D01*
X163837202Y-98361559D01*
X164010846Y-98781812D01*
X164332097Y-99103623D01*
X164752046Y-99278001D01*
X165206759Y-99278398D01*
X165627012Y-99104754D01*
X165948823Y-98783503D01*
X166123201Y-98363554D01*
X166123202Y-98361559D01*
X166377202Y-98361559D01*
X166550846Y-98781812D01*
X166872097Y-99103623D01*
X167292046Y-99278001D01*
X167746759Y-99278398D01*
X168167012Y-99104754D01*
X168488823Y-98783503D01*
X168663201Y-98363554D01*
X168663598Y-97908841D01*
X168489954Y-97488588D01*
X168168703Y-97166777D01*
X167748754Y-96992399D01*
X167294041Y-96992002D01*
X166873788Y-97165646D01*
X166551977Y-97486897D01*
X166377599Y-97906846D01*
X166377202Y-98361559D01*
X166123202Y-98361559D01*
X166123598Y-97908841D01*
X165949954Y-97488588D01*
X165628703Y-97166777D01*
X165208754Y-96992399D01*
X164754041Y-96992002D01*
X164333788Y-97165646D01*
X164011977Y-97486897D01*
X163837599Y-97906846D01*
X163837202Y-98361559D01*
X123174500Y-98361559D01*
X123174500Y-95821559D01*
X163837202Y-95821559D01*
X164010846Y-96241812D01*
X164332097Y-96563623D01*
X164752046Y-96738001D01*
X165206759Y-96738398D01*
X165627012Y-96564754D01*
X165948823Y-96243503D01*
X166123201Y-95823554D01*
X166123202Y-95821559D01*
X166377202Y-95821559D01*
X166550846Y-96241812D01*
X166872097Y-96563623D01*
X167292046Y-96738001D01*
X167746759Y-96738398D01*
X168167012Y-96564754D01*
X168488823Y-96243503D01*
X168663201Y-95823554D01*
X168663598Y-95368841D01*
X168489954Y-94948588D01*
X168168703Y-94626777D01*
X167748754Y-94452399D01*
X167294041Y-94452002D01*
X166873788Y-94625646D01*
X166551977Y-94946897D01*
X166377599Y-95366846D01*
X166377202Y-95821559D01*
X166123202Y-95821559D01*
X166123598Y-95368841D01*
X165949954Y-94948588D01*
X165628703Y-94626777D01*
X165208754Y-94452399D01*
X164754041Y-94452002D01*
X164333788Y-94625646D01*
X164011977Y-94946897D01*
X163837599Y-95366846D01*
X163837202Y-95821559D01*
X123174500Y-95821559D01*
X123174500Y-93281559D01*
X163837202Y-93281559D01*
X164010846Y-93701812D01*
X164332097Y-94023623D01*
X164752046Y-94198001D01*
X165206759Y-94198398D01*
X165627012Y-94024754D01*
X165948823Y-93703503D01*
X166123201Y-93283554D01*
X166123202Y-93281559D01*
X166377202Y-93281559D01*
X166550846Y-93701812D01*
X166872097Y-94023623D01*
X167292046Y-94198001D01*
X167746759Y-94198398D01*
X168167012Y-94024754D01*
X168488823Y-93703503D01*
X168663201Y-93283554D01*
X168663598Y-92828841D01*
X168489954Y-92408588D01*
X168168703Y-92086777D01*
X167748754Y-91912399D01*
X167294041Y-91912002D01*
X166873788Y-92085646D01*
X166551977Y-92406897D01*
X166377599Y-92826846D01*
X166377202Y-93281559D01*
X166123202Y-93281559D01*
X166123598Y-92828841D01*
X165949954Y-92408588D01*
X165628703Y-92086777D01*
X165208754Y-91912399D01*
X164754041Y-91912002D01*
X164333788Y-92085646D01*
X164011977Y-92406897D01*
X163837599Y-92826846D01*
X163837202Y-93281559D01*
X123174500Y-93281559D01*
X123174500Y-91172051D01*
X123285636Y-91061109D01*
X123405763Y-90771811D01*
X123405789Y-90741559D01*
X163837202Y-90741559D01*
X164010846Y-91161812D01*
X164332097Y-91483623D01*
X164752046Y-91658001D01*
X165206759Y-91658398D01*
X165627012Y-91484754D01*
X165948823Y-91163503D01*
X166123201Y-90743554D01*
X166123202Y-90741559D01*
X166377202Y-90741559D01*
X166550846Y-91161812D01*
X166872097Y-91483623D01*
X167292046Y-91658001D01*
X167746759Y-91658398D01*
X168167012Y-91484754D01*
X168488823Y-91163503D01*
X168663201Y-90743554D01*
X168663598Y-90288841D01*
X168489954Y-89868588D01*
X168168703Y-89546777D01*
X167748754Y-89372399D01*
X167294041Y-89372002D01*
X166873788Y-89545646D01*
X166551977Y-89866897D01*
X166377599Y-90286846D01*
X166377202Y-90741559D01*
X166123202Y-90741559D01*
X166123598Y-90288841D01*
X165949954Y-89868588D01*
X165628703Y-89546777D01*
X165208754Y-89372399D01*
X164754041Y-89372002D01*
X164333788Y-89545646D01*
X164011977Y-89866897D01*
X163837599Y-90286846D01*
X163837202Y-90741559D01*
X123405789Y-90741559D01*
X123406036Y-90458564D01*
X123286414Y-90169056D01*
X123174500Y-90056946D01*
X123174500Y-88201559D01*
X163837202Y-88201559D01*
X164010846Y-88621812D01*
X164332097Y-88943623D01*
X164752046Y-89118001D01*
X165206759Y-89118398D01*
X165627012Y-88944754D01*
X165948823Y-88623503D01*
X166123201Y-88203554D01*
X166123202Y-88201559D01*
X166377202Y-88201559D01*
X166550846Y-88621812D01*
X166872097Y-88943623D01*
X167292046Y-89118001D01*
X167746759Y-89118398D01*
X168167012Y-88944754D01*
X168488823Y-88623503D01*
X168663201Y-88203554D01*
X168663598Y-87748841D01*
X168489954Y-87328588D01*
X168168703Y-87006777D01*
X167748754Y-86832399D01*
X167294041Y-86832002D01*
X166873788Y-87005646D01*
X166551977Y-87326897D01*
X166377599Y-87746846D01*
X166377202Y-88201559D01*
X166123202Y-88201559D01*
X166123598Y-87748841D01*
X165949954Y-87328588D01*
X165628703Y-87006777D01*
X165208754Y-86832399D01*
X164754041Y-86832002D01*
X164333788Y-87005646D01*
X164011977Y-87326897D01*
X163837599Y-87746846D01*
X163837202Y-88201559D01*
X123174500Y-88201559D01*
X123174500Y-85661559D01*
X163837202Y-85661559D01*
X164010846Y-86081812D01*
X164332097Y-86403623D01*
X164752046Y-86578001D01*
X165206759Y-86578398D01*
X165627012Y-86404754D01*
X165948823Y-86083503D01*
X166123201Y-85663554D01*
X166123202Y-85661559D01*
X166377202Y-85661559D01*
X166550846Y-86081812D01*
X166872097Y-86403623D01*
X167292046Y-86578001D01*
X167746759Y-86578398D01*
X168167012Y-86404754D01*
X168488823Y-86083503D01*
X168663201Y-85663554D01*
X168663598Y-85208841D01*
X168489954Y-84788588D01*
X168168703Y-84466777D01*
X167748754Y-84292399D01*
X167294041Y-84292002D01*
X166873788Y-84465646D01*
X166551977Y-84786897D01*
X166377599Y-85206846D01*
X166377202Y-85661559D01*
X166123202Y-85661559D01*
X166123598Y-85208841D01*
X165949954Y-84788588D01*
X165628703Y-84466777D01*
X165208754Y-84292399D01*
X164754041Y-84292002D01*
X164333788Y-84465646D01*
X164011977Y-84786897D01*
X163837599Y-85206846D01*
X163837202Y-85661559D01*
X123174500Y-85661559D01*
X123174500Y-83121559D01*
X163837202Y-83121559D01*
X164010846Y-83541812D01*
X164332097Y-83863623D01*
X164752046Y-84038001D01*
X165206759Y-84038398D01*
X165627012Y-83864754D01*
X165948823Y-83543503D01*
X166123201Y-83123554D01*
X166123202Y-83121559D01*
X166377202Y-83121559D01*
X166550846Y-83541812D01*
X166872097Y-83863623D01*
X167292046Y-84038001D01*
X167746759Y-84038398D01*
X168167012Y-83864754D01*
X168488823Y-83543503D01*
X168663201Y-83123554D01*
X168663598Y-82668841D01*
X168489954Y-82248588D01*
X168168703Y-81926777D01*
X167748754Y-81752399D01*
X167294041Y-81752002D01*
X166873788Y-81925646D01*
X166551977Y-82246897D01*
X166377599Y-82666846D01*
X166377202Y-83121559D01*
X166123202Y-83121559D01*
X166123598Y-82668841D01*
X165949954Y-82248588D01*
X165628703Y-81926777D01*
X165208754Y-81752399D01*
X164754041Y-81752002D01*
X164333788Y-81925646D01*
X164011977Y-82246897D01*
X163837599Y-82666846D01*
X163837202Y-83121559D01*
X123174500Y-83121559D01*
X123174500Y-80581559D01*
X163837202Y-80581559D01*
X164010846Y-81001812D01*
X164332097Y-81323623D01*
X164752046Y-81498001D01*
X165206759Y-81498398D01*
X165627012Y-81324754D01*
X165948823Y-81003503D01*
X166123201Y-80583554D01*
X166123202Y-80581559D01*
X166377202Y-80581559D01*
X166550846Y-81001812D01*
X166872097Y-81323623D01*
X167292046Y-81498001D01*
X167746759Y-81498398D01*
X168167012Y-81324754D01*
X168488823Y-81003503D01*
X168663201Y-80583554D01*
X168663598Y-80128841D01*
X168489954Y-79708588D01*
X168168703Y-79386777D01*
X167748754Y-79212399D01*
X167294041Y-79212002D01*
X166873788Y-79385646D01*
X166551977Y-79706897D01*
X166377599Y-80126846D01*
X166377202Y-80581559D01*
X166123202Y-80581559D01*
X166123598Y-80128841D01*
X165949954Y-79708588D01*
X165628703Y-79386777D01*
X165208754Y-79212399D01*
X164754041Y-79212002D01*
X164333788Y-79385646D01*
X164011977Y-79706897D01*
X163837599Y-80126846D01*
X163837202Y-80581559D01*
X123174500Y-80581559D01*
X123174500Y-78041559D01*
X163837202Y-78041559D01*
X164010846Y-78461812D01*
X164332097Y-78783623D01*
X164752046Y-78958001D01*
X165206759Y-78958398D01*
X165627012Y-78784754D01*
X165948823Y-78463503D01*
X166123201Y-78043554D01*
X166123202Y-78041559D01*
X166377202Y-78041559D01*
X166550846Y-78461812D01*
X166872097Y-78783623D01*
X167292046Y-78958001D01*
X167746759Y-78958398D01*
X168167012Y-78784754D01*
X168488823Y-78463503D01*
X168663201Y-78043554D01*
X168663598Y-77588841D01*
X168489954Y-77168588D01*
X168168703Y-76846777D01*
X167748754Y-76672399D01*
X167294041Y-76672002D01*
X166873788Y-76845646D01*
X166551977Y-77166897D01*
X166377599Y-77586846D01*
X166377202Y-78041559D01*
X166123202Y-78041559D01*
X166123598Y-77588841D01*
X165949954Y-77168588D01*
X165628703Y-76846777D01*
X165208754Y-76672399D01*
X164754041Y-76672002D01*
X164333788Y-76845646D01*
X164011977Y-77166897D01*
X163837599Y-77586846D01*
X163837202Y-78041559D01*
X123174500Y-78041559D01*
X123174500Y-75501559D01*
X163837202Y-75501559D01*
X164010846Y-75921812D01*
X164332097Y-76243623D01*
X164752046Y-76418001D01*
X165206759Y-76418398D01*
X165627012Y-76244754D01*
X165948823Y-75923503D01*
X166123201Y-75503554D01*
X166123202Y-75501559D01*
X166377202Y-75501559D01*
X166550846Y-75921812D01*
X166872097Y-76243623D01*
X167292046Y-76418001D01*
X167746759Y-76418398D01*
X168167012Y-76244754D01*
X168488823Y-75923503D01*
X168663201Y-75503554D01*
X168663598Y-75048841D01*
X168489954Y-74628588D01*
X168168703Y-74306777D01*
X167748754Y-74132399D01*
X167294041Y-74132002D01*
X166873788Y-74305646D01*
X166551977Y-74626897D01*
X166377599Y-75046846D01*
X166377202Y-75501559D01*
X166123202Y-75501559D01*
X166123598Y-75048841D01*
X165949954Y-74628588D01*
X165628703Y-74306777D01*
X165208754Y-74132399D01*
X164754041Y-74132002D01*
X164333788Y-74305646D01*
X164011977Y-74626897D01*
X163837599Y-75046846D01*
X163837202Y-75501559D01*
X123174500Y-75501559D01*
X123174500Y-72961559D01*
X163837202Y-72961559D01*
X164010846Y-73381812D01*
X164332097Y-73703623D01*
X164752046Y-73878001D01*
X165206759Y-73878398D01*
X165627012Y-73704754D01*
X165948823Y-73383503D01*
X166123201Y-72963554D01*
X166123202Y-72961559D01*
X166377202Y-72961559D01*
X166550846Y-73381812D01*
X166872097Y-73703623D01*
X167292046Y-73878001D01*
X167746759Y-73878398D01*
X168167012Y-73704754D01*
X168488823Y-73383503D01*
X168663201Y-72963554D01*
X168663598Y-72508841D01*
X168489954Y-72088588D01*
X168168703Y-71766777D01*
X167748754Y-71592399D01*
X167294041Y-71592002D01*
X166873788Y-71765646D01*
X166551977Y-72086897D01*
X166377599Y-72506846D01*
X166377202Y-72961559D01*
X166123202Y-72961559D01*
X166123598Y-72508841D01*
X165949954Y-72088588D01*
X165628703Y-71766777D01*
X165208754Y-71592399D01*
X164754041Y-71592002D01*
X164333788Y-71765646D01*
X164011977Y-72086897D01*
X163837599Y-72506846D01*
X163837202Y-72961559D01*
X123174500Y-72961559D01*
X123174500Y-70421559D01*
X163837202Y-70421559D01*
X164010846Y-70841812D01*
X164332097Y-71163623D01*
X164752046Y-71338001D01*
X165206759Y-71338398D01*
X165627012Y-71164754D01*
X165948823Y-70843503D01*
X166123201Y-70423554D01*
X166123202Y-70421559D01*
X166377202Y-70421559D01*
X166550846Y-70841812D01*
X166872097Y-71163623D01*
X167292046Y-71338001D01*
X167746759Y-71338398D01*
X168167012Y-71164754D01*
X168488823Y-70843503D01*
X168663201Y-70423554D01*
X168663598Y-69968841D01*
X168489954Y-69548588D01*
X168168703Y-69226777D01*
X167748754Y-69052399D01*
X167294041Y-69052002D01*
X166873788Y-69225646D01*
X166551977Y-69546897D01*
X166377599Y-69966846D01*
X166377202Y-70421559D01*
X166123202Y-70421559D01*
X166123598Y-69968841D01*
X165949954Y-69548588D01*
X165628703Y-69226777D01*
X165208754Y-69052399D01*
X164754041Y-69052002D01*
X164333788Y-69225646D01*
X164011977Y-69546897D01*
X163837599Y-69966846D01*
X163837202Y-70421559D01*
X123174500Y-70421559D01*
X123174500Y-67881559D01*
X163837202Y-67881559D01*
X164010846Y-68301812D01*
X164332097Y-68623623D01*
X164752046Y-68798001D01*
X165206759Y-68798398D01*
X165627012Y-68624754D01*
X165948823Y-68303503D01*
X166123201Y-67883554D01*
X166123202Y-67881559D01*
X166377202Y-67881559D01*
X166550846Y-68301812D01*
X166872097Y-68623623D01*
X167292046Y-68798001D01*
X167746759Y-68798398D01*
X168167012Y-68624754D01*
X168488823Y-68303503D01*
X168663201Y-67883554D01*
X168663598Y-67428841D01*
X168489954Y-67008588D01*
X168168703Y-66686777D01*
X167748754Y-66512399D01*
X167294041Y-66512002D01*
X166873788Y-66685646D01*
X166551977Y-67006897D01*
X166377599Y-67426846D01*
X166377202Y-67881559D01*
X166123202Y-67881559D01*
X166123598Y-67428841D01*
X165949954Y-67008588D01*
X165628703Y-66686777D01*
X165208754Y-66512399D01*
X164754041Y-66512002D01*
X164333788Y-66685646D01*
X164011977Y-67006897D01*
X163837599Y-67426846D01*
X163837202Y-67881559D01*
X123174500Y-67881559D01*
X123174500Y-66484500D01*
X123132177Y-66271728D01*
X123123005Y-66258001D01*
X123011652Y-66091349D01*
X122261862Y-65341559D01*
X163837202Y-65341559D01*
X164010846Y-65761812D01*
X164332097Y-66083623D01*
X164752046Y-66258001D01*
X165206759Y-66258398D01*
X165627012Y-66084754D01*
X165948823Y-65763503D01*
X166123201Y-65343554D01*
X166123202Y-65341559D01*
X166377202Y-65341559D01*
X166550846Y-65761812D01*
X166872097Y-66083623D01*
X167292046Y-66258001D01*
X167746759Y-66258398D01*
X168167012Y-66084754D01*
X168488823Y-65763503D01*
X168663201Y-65343554D01*
X168663598Y-64888841D01*
X168489954Y-64468588D01*
X168168703Y-64146777D01*
X167748754Y-63972399D01*
X167294041Y-63972002D01*
X166873788Y-64145646D01*
X166551977Y-64466897D01*
X166377599Y-64886846D01*
X166377202Y-65341559D01*
X166123202Y-65341559D01*
X166123598Y-64888841D01*
X165949954Y-64468588D01*
X165628703Y-64146777D01*
X165208754Y-63972399D01*
X164754041Y-63972002D01*
X164333788Y-64145646D01*
X164011977Y-64466897D01*
X163837599Y-64886846D01*
X163837202Y-65341559D01*
X122261862Y-65341559D01*
X121642351Y-64722049D01*
X121461972Y-64601523D01*
X121249200Y-64559200D01*
X120267394Y-64559200D01*
X120229954Y-64468588D01*
X119908703Y-64146777D01*
X119488754Y-63972399D01*
X119294740Y-63972230D01*
X119607768Y-63956562D01*
X119991543Y-63797597D01*
X120061008Y-63555413D01*
X119260400Y-62754805D01*
X118459792Y-63555413D01*
X118529257Y-63797597D01*
X119026658Y-63975052D01*
X118613788Y-64145646D01*
X118291977Y-64466897D01*
X118253649Y-64559200D01*
X117727394Y-64559200D01*
X117689954Y-64468588D01*
X117368703Y-64146777D01*
X116948754Y-63972399D01*
X116522924Y-63972027D01*
X117065848Y-63944430D01*
X117444323Y-63787660D01*
X117512312Y-63546717D01*
X116720400Y-62754805D01*
X115928488Y-63546717D01*
X115996477Y-63787660D01*
X116514500Y-63972020D01*
X116494041Y-63972002D01*
X116073788Y-64145646D01*
X115751977Y-64466897D01*
X115577599Y-64886846D01*
X115577202Y-65341559D01*
X115231000Y-65341559D01*
X115231000Y-62370371D01*
X115323199Y-62370371D01*
X115351170Y-62920648D01*
X115507940Y-63299123D01*
X115748883Y-63367112D01*
X116540795Y-62575200D01*
X116900005Y-62575200D01*
X117691917Y-63367112D01*
X117932860Y-63299123D01*
X117980068Y-63166476D01*
X118038003Y-63306343D01*
X118280187Y-63375808D01*
X119080795Y-62575200D01*
X119440005Y-62575200D01*
X120240613Y-63375808D01*
X120482797Y-63306343D01*
X120669544Y-62782898D01*
X120641762Y-62227832D01*
X120482797Y-61844057D01*
X120240613Y-61774592D01*
X119440005Y-62575200D01*
X119080795Y-62575200D01*
X118280187Y-61774592D01*
X118038003Y-61844057D01*
X117987965Y-61984312D01*
X117932860Y-61851277D01*
X117691917Y-61783288D01*
X116900005Y-62575200D01*
X116540795Y-62575200D01*
X115748883Y-61783288D01*
X115507940Y-61851277D01*
X115323199Y-62370371D01*
X115231000Y-62370371D01*
X115231000Y-61603683D01*
X115928488Y-61603683D01*
X116720400Y-62395595D01*
X117512312Y-61603683D01*
X117509859Y-61594987D01*
X118459792Y-61594987D01*
X119260400Y-62395595D01*
X120061008Y-61594987D01*
X119991543Y-61352803D01*
X119468098Y-61166056D01*
X118913032Y-61193838D01*
X118529257Y-61352803D01*
X118459792Y-61594987D01*
X117509859Y-61594987D01*
X117444323Y-61362740D01*
X116925229Y-61177999D01*
X116374952Y-61205970D01*
X115996477Y-61362740D01*
X115928488Y-61603683D01*
X115231000Y-61603683D01*
X115231000Y-59431000D01*
X128318119Y-59431000D01*
X130305136Y-63972753D01*
M02*
