M48
METRIC,TZ
T1C0.508
T2C1.016
T3C1.020
T4C3.050
%
G90
G05
T1
X121602Y-112141
X122618Y-90615
X122618Y-109538
X123952Y-81661
X132588Y-112014
X133414Y-107251
X133858Y-112205
X139827Y-111760
X141034Y-111569
X144844Y-111760
X145732Y-107061
X146114Y-111252
X152082Y-110998
X153352Y-110490
X156274Y-105727
T2
X116720Y-65115
X116720Y-67655
X116720Y-70195
X116720Y-72735
X116720Y-75275
X116720Y-77815
X116720Y-80355
X116720Y-82895
X116720Y-85435
X116720Y-87975
X116720Y-90515
X116720Y-93055
X116720Y-95595
X116720Y-98135
X116720Y-100675
X116720Y-103215
X116720Y-105755
X116720Y-108295
X116720Y-110835
X116720Y-113375
X116720Y-115915
X116720Y-118455
X119260Y-62575
X119260Y-65115
X119260Y-67655
X119260Y-70195
X119260Y-72735
X119260Y-75275
X119260Y-77815
X119260Y-80355
X119260Y-82895
X119260Y-85435
X119260Y-87975
X119260Y-90515
X119260Y-93055
X119260Y-95595
X119260Y-98135
X119260Y-100675
X119260Y-103215
X119260Y-105755
X119260Y-108295
X119260Y-110835
X119260Y-113375
X119260Y-115915
X119260Y-118455
X164980Y-65115
X164980Y-67655
X164980Y-70195
X164980Y-72735
X164980Y-75275
X164980Y-77815
X164980Y-80355
X164980Y-82895
X164980Y-85435
X164980Y-87975
X164980Y-90515
X164980Y-93055
X164980Y-95595
X164980Y-98135
X164980Y-100675
X164980Y-103215
X164980Y-105755
X164980Y-108295
X164980Y-110835
X164980Y-113375
X164980Y-115915
X164980Y-118455
X167520Y-62575
X167520Y-65115
X167520Y-67655
X167520Y-70195
X167520Y-72735
X167520Y-75275
X167520Y-77815
X167520Y-80355
X167520Y-82895
X167520Y-85435
X167520Y-87975
X167520Y-90515
X167520Y-93055
X167520Y-95595
X167520Y-98135
X167520Y-100675
X167520Y-103215
X167520Y-105755
X167520Y-108295
X167520Y-110835
X167520Y-113375
X167520Y-115915
X167520Y-118455
T3
X116720Y-62575
X125536Y-124905
X126937Y-127444
X128337Y-124905
X129726Y-127444
X131126Y-124905
X132476Y-127444
X133796Y-124905
X135167Y-127444
X136587Y-124905
X138006Y-127444
X139386Y-124905
X140756Y-127444
X142177Y-124905
X143497Y-127444
X144847Y-124905
X146286Y-127444
X147636Y-124905
X149036Y-127444
X150427Y-124905
X151776Y-127444
X153226Y-124905
X154576Y-127444
X155897Y-124905
X157117Y-127444
X158687Y-124905
X164980Y-62575
T4
X118676Y-127444
X165667Y-127444
T0
M30
